%TF.GenerationSoftware,KiCad,Pcbnew,(5.1.5-0-10_14)*%
%TF.CreationDate,2020-02-25T17:23:17+00:00*%
%TF.ProjectId,Hardware,48617264-7761-4726-952e-6b696361645f,rev?*%
%TF.SameCoordinates,Original*%
%TF.FileFunction,Soldermask,Top*%
%TF.FilePolarity,Negative*%
%FSLAX46Y46*%
G04 Gerber Fmt 4.6, Leading zero omitted, Abs format (unit mm)*
G04 Created by KiCad (PCBNEW (5.1.5-0-10_14)) date 2020-02-25 17:23:17*
%MOMM*%
%LPD*%
G04 APERTURE LIST*
%ADD10C,0.050000*%
%ADD11C,0.150000*%
G04 APERTURE END LIST*
D10*
X152450000Y-52700000D02*
X152450000Y-54100000D01*
X152450000Y-54100000D02*
X149250000Y-54100000D01*
X149250000Y-54100000D02*
X149250000Y-52700000D01*
X149250000Y-52700000D02*
X152450000Y-52700000D01*
X152750000Y-65100000D02*
X152750000Y-63700000D01*
X155950000Y-65100000D02*
X152750000Y-65100000D01*
X155950000Y-63700000D02*
X155950000Y-65100000D01*
X152750000Y-63700000D02*
X155950000Y-63700000D01*
X145750000Y-65100000D02*
X145750000Y-63700000D01*
X148950000Y-65100000D02*
X145750000Y-65100000D01*
X148950000Y-63700000D02*
X148950000Y-65100000D01*
X145750000Y-63700000D02*
X148950000Y-63700000D01*
X68000000Y-26000000D02*
X67950000Y-87150000D01*
X176000000Y-26000000D02*
X68000000Y-26000000D01*
X175950000Y-87150000D02*
X176000000Y-26000000D01*
X67950000Y-87150000D02*
X175950000Y-87150000D01*
D11*
G36*
X172309549Y-82691116D02*
G01*
X172420734Y-82713232D01*
X172630203Y-82799997D01*
X172818720Y-82925960D01*
X172979040Y-83086280D01*
X173105003Y-83274797D01*
X173191768Y-83484266D01*
X173236000Y-83706636D01*
X173236000Y-83933364D01*
X173191768Y-84155734D01*
X173105003Y-84365203D01*
X172979040Y-84553720D01*
X172818720Y-84714040D01*
X172630203Y-84840003D01*
X172420734Y-84926768D01*
X172309549Y-84948884D01*
X172198365Y-84971000D01*
X171971635Y-84971000D01*
X171860451Y-84948884D01*
X171749266Y-84926768D01*
X171539797Y-84840003D01*
X171351280Y-84714040D01*
X171190960Y-84553720D01*
X171064997Y-84365203D01*
X170978232Y-84155734D01*
X170934000Y-83933364D01*
X170934000Y-83706636D01*
X170978232Y-83484266D01*
X171064997Y-83274797D01*
X171190960Y-83086280D01*
X171351280Y-82925960D01*
X171539797Y-82799997D01*
X171749266Y-82713232D01*
X171860451Y-82691116D01*
X171971635Y-82669000D01*
X172198365Y-82669000D01*
X172309549Y-82691116D01*
G37*
G36*
X84679549Y-82691116D02*
G01*
X84790734Y-82713232D01*
X85000203Y-82799997D01*
X85188720Y-82925960D01*
X85349040Y-83086280D01*
X85475003Y-83274797D01*
X85561768Y-83484266D01*
X85606000Y-83706636D01*
X85606000Y-83933364D01*
X85561768Y-84155734D01*
X85475003Y-84365203D01*
X85349040Y-84553720D01*
X85188720Y-84714040D01*
X85000203Y-84840003D01*
X84790734Y-84926768D01*
X84679549Y-84948884D01*
X84568365Y-84971000D01*
X84341635Y-84971000D01*
X84230451Y-84948884D01*
X84119266Y-84926768D01*
X83909797Y-84840003D01*
X83721280Y-84714040D01*
X83560960Y-84553720D01*
X83434997Y-84365203D01*
X83348232Y-84155734D01*
X83304000Y-83933364D01*
X83304000Y-83706636D01*
X83348232Y-83484266D01*
X83434997Y-83274797D01*
X83560960Y-83086280D01*
X83721280Y-82925960D01*
X83909797Y-82799997D01*
X84119266Y-82713232D01*
X84230451Y-82691116D01*
X84341635Y-82669000D01*
X84568365Y-82669000D01*
X84679549Y-82691116D01*
G37*
G36*
X73973512Y-81163927D02*
G01*
X74122812Y-81193624D01*
X74286784Y-81261544D01*
X74434354Y-81360147D01*
X74559853Y-81485646D01*
X74658456Y-81633216D01*
X74726376Y-81797188D01*
X74761000Y-81971259D01*
X74761000Y-82148741D01*
X74726376Y-82322812D01*
X74658456Y-82486784D01*
X74559853Y-82634354D01*
X74434354Y-82759853D01*
X74286784Y-82858456D01*
X74122812Y-82926376D01*
X73973512Y-82956073D01*
X73948742Y-82961000D01*
X73771258Y-82961000D01*
X73746488Y-82956073D01*
X73597188Y-82926376D01*
X73433216Y-82858456D01*
X73285646Y-82759853D01*
X73160147Y-82634354D01*
X73061544Y-82486784D01*
X72993624Y-82322812D01*
X72959000Y-82148741D01*
X72959000Y-81971259D01*
X72993624Y-81797188D01*
X73061544Y-81633216D01*
X73160147Y-81485646D01*
X73285646Y-81360147D01*
X73433216Y-81261544D01*
X73597188Y-81193624D01*
X73746488Y-81163927D01*
X73771258Y-81159000D01*
X73948742Y-81159000D01*
X73973512Y-81163927D01*
G37*
G36*
X76513512Y-81163927D02*
G01*
X76662812Y-81193624D01*
X76826784Y-81261544D01*
X76974354Y-81360147D01*
X77099853Y-81485646D01*
X77198456Y-81633216D01*
X77266376Y-81797188D01*
X77301000Y-81971259D01*
X77301000Y-82148741D01*
X77266376Y-82322812D01*
X77198456Y-82486784D01*
X77099853Y-82634354D01*
X76974354Y-82759853D01*
X76826784Y-82858456D01*
X76662812Y-82926376D01*
X76513512Y-82956073D01*
X76488742Y-82961000D01*
X76311258Y-82961000D01*
X76286488Y-82956073D01*
X76137188Y-82926376D01*
X75973216Y-82858456D01*
X75825646Y-82759853D01*
X75700147Y-82634354D01*
X75601544Y-82486784D01*
X75533624Y-82322812D01*
X75499000Y-82148741D01*
X75499000Y-81971259D01*
X75533624Y-81797188D01*
X75601544Y-81633216D01*
X75700147Y-81485646D01*
X75825646Y-81360147D01*
X75973216Y-81261544D01*
X76137188Y-81193624D01*
X76286488Y-81163927D01*
X76311258Y-81159000D01*
X76488742Y-81159000D01*
X76513512Y-81163927D01*
G37*
G36*
X142100548Y-80262326D02*
G01*
X142274157Y-80314990D01*
X142274159Y-80314991D01*
X142292456Y-80324771D01*
X142434156Y-80400511D01*
X142470957Y-80430713D01*
X142574397Y-80515603D01*
X142648455Y-80605844D01*
X142689489Y-80655844D01*
X142775010Y-80815843D01*
X142827674Y-80989452D01*
X142841000Y-81124757D01*
X142841000Y-81675244D01*
X142827674Y-81810548D01*
X142775010Y-81984157D01*
X142689489Y-82144156D01*
X142685725Y-82148742D01*
X142574397Y-82284397D01*
X142434155Y-82399489D01*
X142327686Y-82456398D01*
X142274156Y-82485010D01*
X142100547Y-82537674D01*
X141920000Y-82555456D01*
X141739452Y-82537674D01*
X141565843Y-82485010D01*
X141405844Y-82399489D01*
X141344919Y-82349489D01*
X141265603Y-82284397D01*
X141150511Y-82144155D01*
X141064991Y-81984158D01*
X141061078Y-81971259D01*
X141012326Y-81810547D01*
X140999000Y-81675243D01*
X140999000Y-81124756D01*
X141012326Y-80989452D01*
X141064990Y-80815843D01*
X141150512Y-80655844D01*
X141191546Y-80605844D01*
X141265604Y-80515603D01*
X141369044Y-80430713D01*
X141405845Y-80400511D01*
X141547545Y-80324771D01*
X141565842Y-80314991D01*
X141565844Y-80314990D01*
X141739453Y-80262326D01*
X141920000Y-80244544D01*
X142100548Y-80262326D01*
G37*
G36*
X144640548Y-80262326D02*
G01*
X144814157Y-80314990D01*
X144814159Y-80314991D01*
X144832456Y-80324771D01*
X144974156Y-80400511D01*
X145010957Y-80430713D01*
X145114397Y-80515603D01*
X145188455Y-80605844D01*
X145229489Y-80655844D01*
X145315010Y-80815843D01*
X145367674Y-80989452D01*
X145381000Y-81124757D01*
X145381000Y-81675244D01*
X145367674Y-81810548D01*
X145315010Y-81984157D01*
X145229489Y-82144156D01*
X145225725Y-82148742D01*
X145114397Y-82284397D01*
X144974155Y-82399489D01*
X144867686Y-82456398D01*
X144814156Y-82485010D01*
X144640547Y-82537674D01*
X144460000Y-82555456D01*
X144279452Y-82537674D01*
X144105843Y-82485010D01*
X143945844Y-82399489D01*
X143884919Y-82349489D01*
X143805603Y-82284397D01*
X143690511Y-82144155D01*
X143604991Y-81984158D01*
X143601078Y-81971259D01*
X143552326Y-81810547D01*
X143539000Y-81675243D01*
X143539000Y-81124756D01*
X143552326Y-80989452D01*
X143604990Y-80815843D01*
X143690512Y-80655844D01*
X143731546Y-80605844D01*
X143805604Y-80515603D01*
X143909044Y-80430713D01*
X143945845Y-80400511D01*
X144087545Y-80324771D01*
X144105842Y-80314991D01*
X144105844Y-80314990D01*
X144279453Y-80262326D01*
X144460000Y-80244544D01*
X144640548Y-80262326D01*
G37*
G36*
X161040548Y-80262326D02*
G01*
X161214157Y-80314990D01*
X161214159Y-80314991D01*
X161232456Y-80324771D01*
X161374156Y-80400511D01*
X161410957Y-80430713D01*
X161514397Y-80515603D01*
X161588455Y-80605844D01*
X161629489Y-80655844D01*
X161715010Y-80815843D01*
X161767674Y-80989452D01*
X161781000Y-81124757D01*
X161781000Y-81675244D01*
X161767674Y-81810548D01*
X161715010Y-81984157D01*
X161629489Y-82144156D01*
X161625725Y-82148742D01*
X161514397Y-82284397D01*
X161374155Y-82399489D01*
X161267686Y-82456398D01*
X161214156Y-82485010D01*
X161040547Y-82537674D01*
X160860000Y-82555456D01*
X160679452Y-82537674D01*
X160505843Y-82485010D01*
X160345844Y-82399489D01*
X160284919Y-82349489D01*
X160205603Y-82284397D01*
X160090511Y-82144155D01*
X160004991Y-81984158D01*
X160001078Y-81971259D01*
X159952326Y-81810547D01*
X159939000Y-81675243D01*
X159939000Y-81124756D01*
X159952326Y-80989452D01*
X160004990Y-80815843D01*
X160090512Y-80655844D01*
X160131546Y-80605844D01*
X160205604Y-80515603D01*
X160309044Y-80430713D01*
X160345845Y-80400511D01*
X160487545Y-80324771D01*
X160505842Y-80314991D01*
X160505844Y-80314990D01*
X160679453Y-80262326D01*
X160860000Y-80244544D01*
X161040548Y-80262326D01*
G37*
G36*
X147779561Y-80252966D02*
G01*
X147812383Y-80262923D01*
X147842632Y-80279092D01*
X147869148Y-80300852D01*
X147890908Y-80327368D01*
X147907077Y-80357617D01*
X147917034Y-80390439D01*
X147921000Y-80430713D01*
X147921000Y-82369287D01*
X147917034Y-82409561D01*
X147907077Y-82442383D01*
X147890908Y-82472632D01*
X147869148Y-82499148D01*
X147842632Y-82520908D01*
X147812383Y-82537077D01*
X147779561Y-82547034D01*
X147739287Y-82551000D01*
X146260713Y-82551000D01*
X146220439Y-82547034D01*
X146187617Y-82537077D01*
X146157368Y-82520908D01*
X146130852Y-82499148D01*
X146109092Y-82472632D01*
X146092923Y-82442383D01*
X146082966Y-82409561D01*
X146079000Y-82369287D01*
X146079000Y-80430713D01*
X146082966Y-80390439D01*
X146092923Y-80357617D01*
X146109092Y-80327368D01*
X146130852Y-80300852D01*
X146157368Y-80279092D01*
X146187617Y-80262923D01*
X146220439Y-80252966D01*
X146260713Y-80249000D01*
X147739287Y-80249000D01*
X147779561Y-80252966D01*
G37*
G36*
X164179561Y-80252966D02*
G01*
X164212383Y-80262923D01*
X164242632Y-80279092D01*
X164269148Y-80300852D01*
X164290908Y-80327368D01*
X164307077Y-80357617D01*
X164317034Y-80390439D01*
X164321000Y-80430713D01*
X164321000Y-82369287D01*
X164317034Y-82409561D01*
X164307077Y-82442383D01*
X164290908Y-82472632D01*
X164269148Y-82499148D01*
X164242632Y-82520908D01*
X164212383Y-82537077D01*
X164179561Y-82547034D01*
X164139287Y-82551000D01*
X162660713Y-82551000D01*
X162620439Y-82547034D01*
X162587617Y-82537077D01*
X162557368Y-82520908D01*
X162530852Y-82499148D01*
X162509092Y-82472632D01*
X162492923Y-82442383D01*
X162482966Y-82409561D01*
X162479000Y-82369287D01*
X162479000Y-80430713D01*
X162482966Y-80390439D01*
X162492923Y-80357617D01*
X162509092Y-80327368D01*
X162530852Y-80300852D01*
X162557368Y-80279092D01*
X162587617Y-80262923D01*
X162620439Y-80252966D01*
X162660713Y-80249000D01*
X164139287Y-80249000D01*
X164179561Y-80252966D01*
G37*
G36*
X95430547Y-80212326D02*
G01*
X95604156Y-80264990D01*
X95604158Y-80264991D01*
X95764155Y-80350511D01*
X95904397Y-80465603D01*
X95983729Y-80562271D01*
X96019489Y-80605844D01*
X96105010Y-80765843D01*
X96157674Y-80939452D01*
X96171000Y-81074756D01*
X96171000Y-81625243D01*
X96157674Y-81760548D01*
X96105010Y-81934157D01*
X96019489Y-82094156D01*
X95983729Y-82137729D01*
X95904397Y-82234397D01*
X95807729Y-82313729D01*
X95764156Y-82349489D01*
X95604157Y-82435010D01*
X95430548Y-82487674D01*
X95250000Y-82505456D01*
X95069453Y-82487674D01*
X94895844Y-82435010D01*
X94735845Y-82349489D01*
X94692272Y-82313729D01*
X94595604Y-82234397D01*
X94480513Y-82094157D01*
X94480512Y-82094155D01*
X94394990Y-81934157D01*
X94342326Y-81760548D01*
X94329000Y-81625244D01*
X94329000Y-81074757D01*
X94342326Y-80939453D01*
X94394990Y-80765844D01*
X94453786Y-80655845D01*
X94480511Y-80605845D01*
X94595603Y-80465603D01*
X94699043Y-80380713D01*
X94735844Y-80350511D01*
X94895843Y-80264990D01*
X95069452Y-80212326D01*
X95250000Y-80194544D01*
X95430547Y-80212326D01*
G37*
G36*
X128450547Y-80212326D02*
G01*
X128624156Y-80264990D01*
X128624158Y-80264991D01*
X128784155Y-80350511D01*
X128924397Y-80465603D01*
X129003729Y-80562271D01*
X129039489Y-80605844D01*
X129125010Y-80765843D01*
X129177674Y-80939452D01*
X129191000Y-81074756D01*
X129191000Y-81625243D01*
X129177674Y-81760548D01*
X129125010Y-81934157D01*
X129039489Y-82094156D01*
X129003729Y-82137729D01*
X128924397Y-82234397D01*
X128827729Y-82313729D01*
X128784156Y-82349489D01*
X128624157Y-82435010D01*
X128450548Y-82487674D01*
X128270000Y-82505456D01*
X128089453Y-82487674D01*
X127915844Y-82435010D01*
X127755845Y-82349489D01*
X127712272Y-82313729D01*
X127615604Y-82234397D01*
X127500513Y-82094157D01*
X127500512Y-82094155D01*
X127414990Y-81934157D01*
X127362326Y-81760548D01*
X127349000Y-81625244D01*
X127349000Y-81074757D01*
X127362326Y-80939453D01*
X127414990Y-80765844D01*
X127473786Y-80655845D01*
X127500511Y-80605845D01*
X127615603Y-80465603D01*
X127719043Y-80380713D01*
X127755844Y-80350511D01*
X127915843Y-80264990D01*
X128089452Y-80212326D01*
X128270000Y-80194544D01*
X128450547Y-80212326D01*
G37*
G36*
X125910547Y-80212326D02*
G01*
X126084156Y-80264990D01*
X126084158Y-80264991D01*
X126244155Y-80350511D01*
X126384397Y-80465603D01*
X126463729Y-80562271D01*
X126499489Y-80605844D01*
X126585010Y-80765843D01*
X126637674Y-80939452D01*
X126651000Y-81074756D01*
X126651000Y-81625243D01*
X126637674Y-81760548D01*
X126585010Y-81934157D01*
X126499489Y-82094156D01*
X126463729Y-82137729D01*
X126384397Y-82234397D01*
X126287729Y-82313729D01*
X126244156Y-82349489D01*
X126084157Y-82435010D01*
X125910548Y-82487674D01*
X125730000Y-82505456D01*
X125549453Y-82487674D01*
X125375844Y-82435010D01*
X125215845Y-82349489D01*
X125172272Y-82313729D01*
X125075604Y-82234397D01*
X124960513Y-82094157D01*
X124960512Y-82094155D01*
X124874990Y-81934157D01*
X124822326Y-81760548D01*
X124809000Y-81625244D01*
X124809000Y-81074757D01*
X124822326Y-80939453D01*
X124874990Y-80765844D01*
X124933786Y-80655845D01*
X124960511Y-80605845D01*
X125075603Y-80465603D01*
X125179043Y-80380713D01*
X125215844Y-80350511D01*
X125375843Y-80264990D01*
X125549452Y-80212326D01*
X125730000Y-80194544D01*
X125910547Y-80212326D01*
G37*
G36*
X118290547Y-80212326D02*
G01*
X118464156Y-80264990D01*
X118464158Y-80264991D01*
X118624155Y-80350511D01*
X118764397Y-80465603D01*
X118843729Y-80562271D01*
X118879489Y-80605844D01*
X118965010Y-80765843D01*
X119017674Y-80939452D01*
X119031000Y-81074756D01*
X119031000Y-81625243D01*
X119017674Y-81760548D01*
X118965010Y-81934157D01*
X118879489Y-82094156D01*
X118843729Y-82137729D01*
X118764397Y-82234397D01*
X118667729Y-82313729D01*
X118624156Y-82349489D01*
X118464157Y-82435010D01*
X118290548Y-82487674D01*
X118110000Y-82505456D01*
X117929453Y-82487674D01*
X117755844Y-82435010D01*
X117595845Y-82349489D01*
X117552272Y-82313729D01*
X117455604Y-82234397D01*
X117340513Y-82094157D01*
X117340512Y-82094155D01*
X117254990Y-81934157D01*
X117202326Y-81760548D01*
X117189000Y-81625244D01*
X117189000Y-81074757D01*
X117202326Y-80939453D01*
X117254990Y-80765844D01*
X117313786Y-80655845D01*
X117340511Y-80605845D01*
X117455603Y-80465603D01*
X117559043Y-80380713D01*
X117595844Y-80350511D01*
X117755843Y-80264990D01*
X117929452Y-80212326D01*
X118110000Y-80194544D01*
X118290547Y-80212326D01*
G37*
G36*
X115750547Y-80212326D02*
G01*
X115924156Y-80264990D01*
X115924158Y-80264991D01*
X116084155Y-80350511D01*
X116224397Y-80465603D01*
X116303729Y-80562271D01*
X116339489Y-80605844D01*
X116425010Y-80765843D01*
X116477674Y-80939452D01*
X116491000Y-81074756D01*
X116491000Y-81625243D01*
X116477674Y-81760548D01*
X116425010Y-81934157D01*
X116339489Y-82094156D01*
X116303729Y-82137729D01*
X116224397Y-82234397D01*
X116127729Y-82313729D01*
X116084156Y-82349489D01*
X115924157Y-82435010D01*
X115750548Y-82487674D01*
X115570000Y-82505456D01*
X115389453Y-82487674D01*
X115215844Y-82435010D01*
X115055845Y-82349489D01*
X115012272Y-82313729D01*
X114915604Y-82234397D01*
X114800513Y-82094157D01*
X114800512Y-82094155D01*
X114714990Y-81934157D01*
X114662326Y-81760548D01*
X114649000Y-81625244D01*
X114649000Y-81074757D01*
X114662326Y-80939453D01*
X114714990Y-80765844D01*
X114773786Y-80655845D01*
X114800511Y-80605845D01*
X114915603Y-80465603D01*
X115019043Y-80380713D01*
X115055844Y-80350511D01*
X115215843Y-80264990D01*
X115389452Y-80212326D01*
X115570000Y-80194544D01*
X115750547Y-80212326D01*
G37*
G36*
X105590547Y-80212326D02*
G01*
X105764156Y-80264990D01*
X105764158Y-80264991D01*
X105924155Y-80350511D01*
X106064397Y-80465603D01*
X106143729Y-80562271D01*
X106179489Y-80605844D01*
X106265010Y-80765843D01*
X106317674Y-80939452D01*
X106331000Y-81074756D01*
X106331000Y-81625243D01*
X106317674Y-81760548D01*
X106265010Y-81934157D01*
X106179489Y-82094156D01*
X106143729Y-82137729D01*
X106064397Y-82234397D01*
X105967729Y-82313729D01*
X105924156Y-82349489D01*
X105764157Y-82435010D01*
X105590548Y-82487674D01*
X105410000Y-82505456D01*
X105229453Y-82487674D01*
X105055844Y-82435010D01*
X104895845Y-82349489D01*
X104852272Y-82313729D01*
X104755604Y-82234397D01*
X104640513Y-82094157D01*
X104640512Y-82094155D01*
X104554990Y-81934157D01*
X104502326Y-81760548D01*
X104489000Y-81625244D01*
X104489000Y-81074757D01*
X104502326Y-80939453D01*
X104554990Y-80765844D01*
X104613786Y-80655845D01*
X104640511Y-80605845D01*
X104755603Y-80465603D01*
X104859043Y-80380713D01*
X104895844Y-80350511D01*
X105055843Y-80264990D01*
X105229452Y-80212326D01*
X105410000Y-80194544D01*
X105590547Y-80212326D01*
G37*
G36*
X108130547Y-80212326D02*
G01*
X108304156Y-80264990D01*
X108304158Y-80264991D01*
X108464155Y-80350511D01*
X108604397Y-80465603D01*
X108683729Y-80562271D01*
X108719489Y-80605844D01*
X108805010Y-80765843D01*
X108857674Y-80939452D01*
X108871000Y-81074756D01*
X108871000Y-81625243D01*
X108857674Y-81760548D01*
X108805010Y-81934157D01*
X108719489Y-82094156D01*
X108683729Y-82137729D01*
X108604397Y-82234397D01*
X108507729Y-82313729D01*
X108464156Y-82349489D01*
X108304157Y-82435010D01*
X108130548Y-82487674D01*
X107950000Y-82505456D01*
X107769453Y-82487674D01*
X107595844Y-82435010D01*
X107435845Y-82349489D01*
X107392272Y-82313729D01*
X107295604Y-82234397D01*
X107180513Y-82094157D01*
X107180512Y-82094155D01*
X107094990Y-81934157D01*
X107042326Y-81760548D01*
X107029000Y-81625244D01*
X107029000Y-81074757D01*
X107042326Y-80939453D01*
X107094990Y-80765844D01*
X107153786Y-80655845D01*
X107180511Y-80605845D01*
X107295603Y-80465603D01*
X107399043Y-80380713D01*
X107435844Y-80350511D01*
X107595843Y-80264990D01*
X107769452Y-80212326D01*
X107950000Y-80194544D01*
X108130547Y-80212326D01*
G37*
G36*
X97970547Y-80212326D02*
G01*
X98144156Y-80264990D01*
X98144158Y-80264991D01*
X98304155Y-80350511D01*
X98444397Y-80465603D01*
X98523729Y-80562271D01*
X98559489Y-80605844D01*
X98645010Y-80765843D01*
X98697674Y-80939452D01*
X98711000Y-81074756D01*
X98711000Y-81625243D01*
X98697674Y-81760548D01*
X98645010Y-81934157D01*
X98559489Y-82094156D01*
X98523729Y-82137729D01*
X98444397Y-82234397D01*
X98347729Y-82313729D01*
X98304156Y-82349489D01*
X98144157Y-82435010D01*
X97970548Y-82487674D01*
X97790000Y-82505456D01*
X97609453Y-82487674D01*
X97435844Y-82435010D01*
X97275845Y-82349489D01*
X97232272Y-82313729D01*
X97135604Y-82234397D01*
X97020513Y-82094157D01*
X97020512Y-82094155D01*
X96934990Y-81934157D01*
X96882326Y-81760548D01*
X96869000Y-81625244D01*
X96869000Y-81074757D01*
X96882326Y-80939453D01*
X96934990Y-80765844D01*
X96993786Y-80655845D01*
X97020511Y-80605845D01*
X97135603Y-80465603D01*
X97239043Y-80380713D01*
X97275844Y-80350511D01*
X97435843Y-80264990D01*
X97609452Y-80212326D01*
X97790000Y-80194544D01*
X97970547Y-80212326D01*
G37*
G36*
X103649561Y-80202966D02*
G01*
X103682383Y-80212923D01*
X103712632Y-80229092D01*
X103739148Y-80250852D01*
X103760908Y-80277368D01*
X103777077Y-80307617D01*
X103787034Y-80340439D01*
X103791000Y-80380713D01*
X103791000Y-82319287D01*
X103787034Y-82359561D01*
X103777077Y-82392383D01*
X103760908Y-82422632D01*
X103739148Y-82449148D01*
X103712632Y-82470908D01*
X103682383Y-82487077D01*
X103649561Y-82497034D01*
X103609287Y-82501000D01*
X102130713Y-82501000D01*
X102090439Y-82497034D01*
X102057617Y-82487077D01*
X102027368Y-82470908D01*
X102000852Y-82449148D01*
X101979092Y-82422632D01*
X101962923Y-82392383D01*
X101952966Y-82359561D01*
X101949000Y-82319287D01*
X101949000Y-80380713D01*
X101952966Y-80340439D01*
X101962923Y-80307617D01*
X101979092Y-80277368D01*
X102000852Y-80250852D01*
X102027368Y-80229092D01*
X102057617Y-80212923D01*
X102090439Y-80202966D01*
X102130713Y-80199000D01*
X103609287Y-80199000D01*
X103649561Y-80202966D01*
G37*
G36*
X93489561Y-80202966D02*
G01*
X93522383Y-80212923D01*
X93552632Y-80229092D01*
X93579148Y-80250852D01*
X93600908Y-80277368D01*
X93617077Y-80307617D01*
X93627034Y-80340439D01*
X93631000Y-80380713D01*
X93631000Y-82319287D01*
X93627034Y-82359561D01*
X93617077Y-82392383D01*
X93600908Y-82422632D01*
X93579148Y-82449148D01*
X93552632Y-82470908D01*
X93522383Y-82487077D01*
X93489561Y-82497034D01*
X93449287Y-82501000D01*
X91970713Y-82501000D01*
X91930439Y-82497034D01*
X91897617Y-82487077D01*
X91867368Y-82470908D01*
X91840852Y-82449148D01*
X91819092Y-82422632D01*
X91802923Y-82392383D01*
X91792966Y-82359561D01*
X91789000Y-82319287D01*
X91789000Y-80380713D01*
X91792966Y-80340439D01*
X91802923Y-80307617D01*
X91819092Y-80277368D01*
X91840852Y-80250852D01*
X91867368Y-80229092D01*
X91897617Y-80212923D01*
X91930439Y-80202966D01*
X91970713Y-80199000D01*
X93449287Y-80199000D01*
X93489561Y-80202966D01*
G37*
G36*
X123969561Y-80202966D02*
G01*
X124002383Y-80212923D01*
X124032632Y-80229092D01*
X124059148Y-80250852D01*
X124080908Y-80277368D01*
X124097077Y-80307617D01*
X124107034Y-80340439D01*
X124111000Y-80380713D01*
X124111000Y-82319287D01*
X124107034Y-82359561D01*
X124097077Y-82392383D01*
X124080908Y-82422632D01*
X124059148Y-82449148D01*
X124032632Y-82470908D01*
X124002383Y-82487077D01*
X123969561Y-82497034D01*
X123929287Y-82501000D01*
X122450713Y-82501000D01*
X122410439Y-82497034D01*
X122377617Y-82487077D01*
X122347368Y-82470908D01*
X122320852Y-82449148D01*
X122299092Y-82422632D01*
X122282923Y-82392383D01*
X122272966Y-82359561D01*
X122269000Y-82319287D01*
X122269000Y-80380713D01*
X122272966Y-80340439D01*
X122282923Y-80307617D01*
X122299092Y-80277368D01*
X122320852Y-80250852D01*
X122347368Y-80229092D01*
X122377617Y-80212923D01*
X122410439Y-80202966D01*
X122450713Y-80199000D01*
X123929287Y-80199000D01*
X123969561Y-80202966D01*
G37*
G36*
X113809561Y-80202966D02*
G01*
X113842383Y-80212923D01*
X113872632Y-80229092D01*
X113899148Y-80250852D01*
X113920908Y-80277368D01*
X113937077Y-80307617D01*
X113947034Y-80340439D01*
X113951000Y-80380713D01*
X113951000Y-82319287D01*
X113947034Y-82359561D01*
X113937077Y-82392383D01*
X113920908Y-82422632D01*
X113899148Y-82449148D01*
X113872632Y-82470908D01*
X113842383Y-82487077D01*
X113809561Y-82497034D01*
X113769287Y-82501000D01*
X112290713Y-82501000D01*
X112250439Y-82497034D01*
X112217617Y-82487077D01*
X112187368Y-82470908D01*
X112160852Y-82449148D01*
X112139092Y-82422632D01*
X112122923Y-82392383D01*
X112112966Y-82359561D01*
X112109000Y-82319287D01*
X112109000Y-80380713D01*
X112112966Y-80340439D01*
X112122923Y-80307617D01*
X112139092Y-80277368D01*
X112160852Y-80250852D01*
X112187368Y-80229092D01*
X112217617Y-80212923D01*
X112250439Y-80202966D01*
X112290713Y-80199000D01*
X113769287Y-80199000D01*
X113809561Y-80202966D01*
G37*
G36*
X73973512Y-78623927D02*
G01*
X74122812Y-78653624D01*
X74286784Y-78721544D01*
X74434354Y-78820147D01*
X74559853Y-78945646D01*
X74658456Y-79093216D01*
X74726376Y-79257188D01*
X74761000Y-79431259D01*
X74761000Y-79608741D01*
X74726376Y-79782812D01*
X74658456Y-79946784D01*
X74559853Y-80094354D01*
X74434354Y-80219853D01*
X74286784Y-80318456D01*
X74122812Y-80386376D01*
X73973512Y-80416073D01*
X73948742Y-80421000D01*
X73771258Y-80421000D01*
X73746488Y-80416073D01*
X73597188Y-80386376D01*
X73433216Y-80318456D01*
X73285646Y-80219853D01*
X73160147Y-80094354D01*
X73061544Y-79946784D01*
X72993624Y-79782812D01*
X72959000Y-79608741D01*
X72959000Y-79431259D01*
X72993624Y-79257188D01*
X73061544Y-79093216D01*
X73160147Y-78945646D01*
X73285646Y-78820147D01*
X73433216Y-78721544D01*
X73597188Y-78653624D01*
X73746488Y-78623927D01*
X73771258Y-78619000D01*
X73948742Y-78619000D01*
X73973512Y-78623927D01*
G37*
G36*
X76513512Y-78623927D02*
G01*
X76662812Y-78653624D01*
X76826784Y-78721544D01*
X76974354Y-78820147D01*
X77099853Y-78945646D01*
X77198456Y-79093216D01*
X77266376Y-79257188D01*
X77301000Y-79431259D01*
X77301000Y-79608741D01*
X77266376Y-79782812D01*
X77198456Y-79946784D01*
X77099853Y-80094354D01*
X76974354Y-80219853D01*
X76826784Y-80318456D01*
X76662812Y-80386376D01*
X76513512Y-80416073D01*
X76488742Y-80421000D01*
X76311258Y-80421000D01*
X76286488Y-80416073D01*
X76137188Y-80386376D01*
X75973216Y-80318456D01*
X75825646Y-80219853D01*
X75700147Y-80094354D01*
X75601544Y-79946784D01*
X75533624Y-79782812D01*
X75499000Y-79608741D01*
X75499000Y-79431259D01*
X75533624Y-79257188D01*
X75601544Y-79093216D01*
X75700147Y-78945646D01*
X75825646Y-78820147D01*
X75973216Y-78721544D01*
X76137188Y-78653624D01*
X76286488Y-78623927D01*
X76311258Y-78619000D01*
X76488742Y-78619000D01*
X76513512Y-78623927D01*
G37*
G36*
X170809561Y-78282966D02*
G01*
X170842383Y-78292923D01*
X170872632Y-78309092D01*
X170899148Y-78330852D01*
X170920908Y-78357368D01*
X170937077Y-78387617D01*
X170947034Y-78420439D01*
X170951000Y-78460713D01*
X170951000Y-79939287D01*
X170947034Y-79979561D01*
X170937077Y-80012383D01*
X170920908Y-80042632D01*
X170899148Y-80069148D01*
X170872632Y-80090908D01*
X170842383Y-80107077D01*
X170809561Y-80117034D01*
X170769287Y-80121000D01*
X168830713Y-80121000D01*
X168790439Y-80117034D01*
X168757617Y-80107077D01*
X168727368Y-80090908D01*
X168700852Y-80069148D01*
X168679092Y-80042632D01*
X168662923Y-80012383D01*
X168652966Y-79979561D01*
X168649000Y-79939287D01*
X168649000Y-78460713D01*
X168652966Y-78420439D01*
X168662923Y-78387617D01*
X168679092Y-78357368D01*
X168700852Y-78330852D01*
X168727368Y-78309092D01*
X168757617Y-78292923D01*
X168790439Y-78282966D01*
X168830713Y-78279000D01*
X170769287Y-78279000D01*
X170809561Y-78282966D01*
G37*
G36*
X73973512Y-76083927D02*
G01*
X74122812Y-76113624D01*
X74286784Y-76181544D01*
X74434354Y-76280147D01*
X74559853Y-76405646D01*
X74658456Y-76553216D01*
X74726376Y-76717188D01*
X74761000Y-76891259D01*
X74761000Y-77068741D01*
X74726376Y-77242812D01*
X74658456Y-77406784D01*
X74559853Y-77554354D01*
X74434354Y-77679853D01*
X74286784Y-77778456D01*
X74122812Y-77846376D01*
X73973512Y-77876073D01*
X73948742Y-77881000D01*
X73771258Y-77881000D01*
X73746488Y-77876073D01*
X73597188Y-77846376D01*
X73433216Y-77778456D01*
X73285646Y-77679853D01*
X73160147Y-77554354D01*
X73061544Y-77406784D01*
X72993624Y-77242812D01*
X72959000Y-77068741D01*
X72959000Y-76891259D01*
X72993624Y-76717188D01*
X73061544Y-76553216D01*
X73160147Y-76405646D01*
X73285646Y-76280147D01*
X73433216Y-76181544D01*
X73597188Y-76113624D01*
X73746488Y-76083927D01*
X73771258Y-76079000D01*
X73948742Y-76079000D01*
X73973512Y-76083927D01*
G37*
G36*
X76513512Y-76083927D02*
G01*
X76662812Y-76113624D01*
X76826784Y-76181544D01*
X76974354Y-76280147D01*
X77099853Y-76405646D01*
X77198456Y-76553216D01*
X77266376Y-76717188D01*
X77301000Y-76891259D01*
X77301000Y-77068741D01*
X77266376Y-77242812D01*
X77198456Y-77406784D01*
X77099853Y-77554354D01*
X76974354Y-77679853D01*
X76826784Y-77778456D01*
X76662812Y-77846376D01*
X76513512Y-77876073D01*
X76488742Y-77881000D01*
X76311258Y-77881000D01*
X76286488Y-77876073D01*
X76137188Y-77846376D01*
X75973216Y-77778456D01*
X75825646Y-77679853D01*
X75700147Y-77554354D01*
X75601544Y-77406784D01*
X75533624Y-77242812D01*
X75499000Y-77068741D01*
X75499000Y-76891259D01*
X75533624Y-76717188D01*
X75601544Y-76553216D01*
X75700147Y-76405646D01*
X75825646Y-76280147D01*
X75973216Y-76181544D01*
X76137188Y-76113624D01*
X76286488Y-76083927D01*
X76311258Y-76079000D01*
X76488742Y-76079000D01*
X76513512Y-76083927D01*
G37*
G36*
X170095551Y-75741000D02*
G01*
X170210548Y-75752326D01*
X170384157Y-75804990D01*
X170544156Y-75890511D01*
X170587729Y-75926271D01*
X170684397Y-76005603D01*
X170763729Y-76102271D01*
X170799489Y-76145844D01*
X170885010Y-76305843D01*
X170937674Y-76479452D01*
X170955456Y-76660000D01*
X170937674Y-76840548D01*
X170885010Y-77014157D01*
X170799489Y-77174156D01*
X170763729Y-77217729D01*
X170684397Y-77314397D01*
X170587729Y-77393729D01*
X170544156Y-77429489D01*
X170384157Y-77515010D01*
X170210548Y-77567674D01*
X170120345Y-77576558D01*
X170075245Y-77581000D01*
X169524755Y-77581000D01*
X169479655Y-77576558D01*
X169389452Y-77567674D01*
X169215843Y-77515010D01*
X169055844Y-77429489D01*
X169012271Y-77393729D01*
X168915603Y-77314397D01*
X168836271Y-77217729D01*
X168800511Y-77174156D01*
X168714990Y-77014157D01*
X168662326Y-76840548D01*
X168644544Y-76660000D01*
X168662326Y-76479452D01*
X168714990Y-76305843D01*
X168800511Y-76145844D01*
X168836271Y-76102271D01*
X168915603Y-76005603D01*
X169012271Y-75926271D01*
X169055844Y-75890511D01*
X169215843Y-75804990D01*
X169389452Y-75752326D01*
X169504449Y-75741000D01*
X169524755Y-75739000D01*
X170075245Y-75739000D01*
X170095551Y-75741000D01*
G37*
G36*
X91553512Y-73943927D02*
G01*
X91702812Y-73973624D01*
X91866784Y-74041544D01*
X92014354Y-74140147D01*
X92139853Y-74265646D01*
X92238456Y-74413216D01*
X92306376Y-74577188D01*
X92341000Y-74751259D01*
X92341000Y-74928741D01*
X92306376Y-75102812D01*
X92238456Y-75266784D01*
X92139853Y-75414354D01*
X92014354Y-75539853D01*
X91866784Y-75638456D01*
X91702812Y-75706376D01*
X91553512Y-75736073D01*
X91528742Y-75741000D01*
X91351258Y-75741000D01*
X91326488Y-75736073D01*
X91177188Y-75706376D01*
X91013216Y-75638456D01*
X90865646Y-75539853D01*
X90740147Y-75414354D01*
X90641544Y-75266784D01*
X90573624Y-75102812D01*
X90539000Y-74928741D01*
X90539000Y-74751259D01*
X90573624Y-74577188D01*
X90641544Y-74413216D01*
X90740147Y-74265646D01*
X90865646Y-74140147D01*
X91013216Y-74041544D01*
X91177188Y-73973624D01*
X91326488Y-73943927D01*
X91351258Y-73939000D01*
X91528742Y-73939000D01*
X91553512Y-73943927D01*
G37*
G36*
X132193512Y-73943927D02*
G01*
X132342812Y-73973624D01*
X132506784Y-74041544D01*
X132654354Y-74140147D01*
X132779853Y-74265646D01*
X132878456Y-74413216D01*
X132946376Y-74577188D01*
X132981000Y-74751259D01*
X132981000Y-74928741D01*
X132946376Y-75102812D01*
X132878456Y-75266784D01*
X132779853Y-75414354D01*
X132654354Y-75539853D01*
X132506784Y-75638456D01*
X132342812Y-75706376D01*
X132193512Y-75736073D01*
X132168742Y-75741000D01*
X131991258Y-75741000D01*
X131966488Y-75736073D01*
X131817188Y-75706376D01*
X131653216Y-75638456D01*
X131505646Y-75539853D01*
X131380147Y-75414354D01*
X131281544Y-75266784D01*
X131213624Y-75102812D01*
X131179000Y-74928741D01*
X131179000Y-74751259D01*
X131213624Y-74577188D01*
X131281544Y-74413216D01*
X131380147Y-74265646D01*
X131505646Y-74140147D01*
X131653216Y-74041544D01*
X131817188Y-73973624D01*
X131966488Y-73943927D01*
X131991258Y-73939000D01*
X132168742Y-73939000D01*
X132193512Y-73943927D01*
G37*
G36*
X134733512Y-73943927D02*
G01*
X134882812Y-73973624D01*
X135046784Y-74041544D01*
X135194354Y-74140147D01*
X135319853Y-74265646D01*
X135418456Y-74413216D01*
X135486376Y-74577188D01*
X135521000Y-74751259D01*
X135521000Y-74928741D01*
X135486376Y-75102812D01*
X135418456Y-75266784D01*
X135319853Y-75414354D01*
X135194354Y-75539853D01*
X135046784Y-75638456D01*
X134882812Y-75706376D01*
X134733512Y-75736073D01*
X134708742Y-75741000D01*
X134531258Y-75741000D01*
X134506488Y-75736073D01*
X134357188Y-75706376D01*
X134193216Y-75638456D01*
X134045646Y-75539853D01*
X133920147Y-75414354D01*
X133821544Y-75266784D01*
X133753624Y-75102812D01*
X133719000Y-74928741D01*
X133719000Y-74751259D01*
X133753624Y-74577188D01*
X133821544Y-74413216D01*
X133920147Y-74265646D01*
X134045646Y-74140147D01*
X134193216Y-74041544D01*
X134357188Y-73973624D01*
X134506488Y-73943927D01*
X134531258Y-73939000D01*
X134708742Y-73939000D01*
X134733512Y-73943927D01*
G37*
G36*
X129653512Y-73943927D02*
G01*
X129802812Y-73973624D01*
X129966784Y-74041544D01*
X130114354Y-74140147D01*
X130239853Y-74265646D01*
X130338456Y-74413216D01*
X130406376Y-74577188D01*
X130441000Y-74751259D01*
X130441000Y-74928741D01*
X130406376Y-75102812D01*
X130338456Y-75266784D01*
X130239853Y-75414354D01*
X130114354Y-75539853D01*
X129966784Y-75638456D01*
X129802812Y-75706376D01*
X129653512Y-75736073D01*
X129628742Y-75741000D01*
X129451258Y-75741000D01*
X129426488Y-75736073D01*
X129277188Y-75706376D01*
X129113216Y-75638456D01*
X128965646Y-75539853D01*
X128840147Y-75414354D01*
X128741544Y-75266784D01*
X128673624Y-75102812D01*
X128639000Y-74928741D01*
X128639000Y-74751259D01*
X128673624Y-74577188D01*
X128741544Y-74413216D01*
X128840147Y-74265646D01*
X128965646Y-74140147D01*
X129113216Y-74041544D01*
X129277188Y-73973624D01*
X129426488Y-73943927D01*
X129451258Y-73939000D01*
X129628742Y-73939000D01*
X129653512Y-73943927D01*
G37*
G36*
X89013512Y-73943927D02*
G01*
X89162812Y-73973624D01*
X89326784Y-74041544D01*
X89474354Y-74140147D01*
X89599853Y-74265646D01*
X89698456Y-74413216D01*
X89766376Y-74577188D01*
X89801000Y-74751259D01*
X89801000Y-74928741D01*
X89766376Y-75102812D01*
X89698456Y-75266784D01*
X89599853Y-75414354D01*
X89474354Y-75539853D01*
X89326784Y-75638456D01*
X89162812Y-75706376D01*
X89013512Y-75736073D01*
X88988742Y-75741000D01*
X88811258Y-75741000D01*
X88786488Y-75736073D01*
X88637188Y-75706376D01*
X88473216Y-75638456D01*
X88325646Y-75539853D01*
X88200147Y-75414354D01*
X88101544Y-75266784D01*
X88033624Y-75102812D01*
X87999000Y-74928741D01*
X87999000Y-74751259D01*
X88033624Y-74577188D01*
X88101544Y-74413216D01*
X88200147Y-74265646D01*
X88325646Y-74140147D01*
X88473216Y-74041544D01*
X88637188Y-73973624D01*
X88786488Y-73943927D01*
X88811258Y-73939000D01*
X88988742Y-73939000D01*
X89013512Y-73943927D01*
G37*
G36*
X86473512Y-73943927D02*
G01*
X86622812Y-73973624D01*
X86786784Y-74041544D01*
X86934354Y-74140147D01*
X87059853Y-74265646D01*
X87158456Y-74413216D01*
X87226376Y-74577188D01*
X87261000Y-74751259D01*
X87261000Y-74928741D01*
X87226376Y-75102812D01*
X87158456Y-75266784D01*
X87059853Y-75414354D01*
X86934354Y-75539853D01*
X86786784Y-75638456D01*
X86622812Y-75706376D01*
X86473512Y-75736073D01*
X86448742Y-75741000D01*
X86271258Y-75741000D01*
X86246488Y-75736073D01*
X86097188Y-75706376D01*
X85933216Y-75638456D01*
X85785646Y-75539853D01*
X85660147Y-75414354D01*
X85561544Y-75266784D01*
X85493624Y-75102812D01*
X85459000Y-74928741D01*
X85459000Y-74751259D01*
X85493624Y-74577188D01*
X85561544Y-74413216D01*
X85660147Y-74265646D01*
X85785646Y-74140147D01*
X85933216Y-74041544D01*
X86097188Y-73973624D01*
X86246488Y-73943927D01*
X86271258Y-73939000D01*
X86448742Y-73939000D01*
X86473512Y-73943927D01*
G37*
G36*
X73973512Y-73543927D02*
G01*
X74122812Y-73573624D01*
X74286784Y-73641544D01*
X74434354Y-73740147D01*
X74559853Y-73865646D01*
X74658456Y-74013216D01*
X74726376Y-74177188D01*
X74761000Y-74351259D01*
X74761000Y-74528741D01*
X74726376Y-74702812D01*
X74658456Y-74866784D01*
X74559853Y-75014354D01*
X74434354Y-75139853D01*
X74286784Y-75238456D01*
X74122812Y-75306376D01*
X73973512Y-75336073D01*
X73948742Y-75341000D01*
X73771258Y-75341000D01*
X73746488Y-75336073D01*
X73597188Y-75306376D01*
X73433216Y-75238456D01*
X73285646Y-75139853D01*
X73160147Y-75014354D01*
X73061544Y-74866784D01*
X72993624Y-74702812D01*
X72959000Y-74528741D01*
X72959000Y-74351259D01*
X72993624Y-74177188D01*
X73061544Y-74013216D01*
X73160147Y-73865646D01*
X73285646Y-73740147D01*
X73433216Y-73641544D01*
X73597188Y-73573624D01*
X73746488Y-73543927D01*
X73771258Y-73539000D01*
X73948742Y-73539000D01*
X73973512Y-73543927D01*
G37*
G36*
X76513512Y-73543927D02*
G01*
X76662812Y-73573624D01*
X76826784Y-73641544D01*
X76974354Y-73740147D01*
X77099853Y-73865646D01*
X77198456Y-74013216D01*
X77266376Y-74177188D01*
X77301000Y-74351259D01*
X77301000Y-74528741D01*
X77266376Y-74702812D01*
X77198456Y-74866784D01*
X77099853Y-75014354D01*
X76974354Y-75139853D01*
X76826784Y-75238456D01*
X76662812Y-75306376D01*
X76513512Y-75336073D01*
X76488742Y-75341000D01*
X76311258Y-75341000D01*
X76286488Y-75336073D01*
X76137188Y-75306376D01*
X75973216Y-75238456D01*
X75825646Y-75139853D01*
X75700147Y-75014354D01*
X75601544Y-74866784D01*
X75533624Y-74702812D01*
X75499000Y-74528741D01*
X75499000Y-74351259D01*
X75533624Y-74177188D01*
X75601544Y-74013216D01*
X75700147Y-73865646D01*
X75825646Y-73740147D01*
X75973216Y-73641544D01*
X76137188Y-73573624D01*
X76286488Y-73543927D01*
X76311258Y-73539000D01*
X76488742Y-73539000D01*
X76513512Y-73543927D01*
G37*
G36*
X170120345Y-73203442D02*
G01*
X170210548Y-73212326D01*
X170384157Y-73264990D01*
X170544156Y-73350511D01*
X170587729Y-73386271D01*
X170684397Y-73465603D01*
X170763729Y-73562271D01*
X170799489Y-73605844D01*
X170885010Y-73765843D01*
X170937674Y-73939452D01*
X170955456Y-74120000D01*
X170937674Y-74300548D01*
X170885010Y-74474157D01*
X170799489Y-74634156D01*
X170763729Y-74677729D01*
X170684397Y-74774397D01*
X170587729Y-74853729D01*
X170544156Y-74889489D01*
X170384157Y-74975010D01*
X170210548Y-75027674D01*
X170120345Y-75036558D01*
X170075245Y-75041000D01*
X169524755Y-75041000D01*
X169479655Y-75036558D01*
X169389452Y-75027674D01*
X169215843Y-74975010D01*
X169055844Y-74889489D01*
X169012271Y-74853729D01*
X168915603Y-74774397D01*
X168836271Y-74677729D01*
X168800511Y-74634156D01*
X168714990Y-74474157D01*
X168662326Y-74300548D01*
X168644544Y-74120000D01*
X168662326Y-73939452D01*
X168714990Y-73765843D01*
X168800511Y-73605844D01*
X168836271Y-73562271D01*
X168915603Y-73465603D01*
X169012271Y-73386271D01*
X169055844Y-73350511D01*
X169215843Y-73264990D01*
X169389452Y-73212326D01*
X169479655Y-73203442D01*
X169524755Y-73199000D01*
X170075245Y-73199000D01*
X170120345Y-73203442D01*
G37*
G36*
X76513512Y-71003927D02*
G01*
X76662812Y-71033624D01*
X76826784Y-71101544D01*
X76974354Y-71200147D01*
X77099853Y-71325646D01*
X77198456Y-71473216D01*
X77266376Y-71637188D01*
X77301000Y-71811259D01*
X77301000Y-71988741D01*
X77266376Y-72162812D01*
X77198456Y-72326784D01*
X77099853Y-72474354D01*
X76974354Y-72599853D01*
X76826784Y-72698456D01*
X76662812Y-72766376D01*
X76513512Y-72796073D01*
X76488742Y-72801000D01*
X76311258Y-72801000D01*
X76286488Y-72796073D01*
X76137188Y-72766376D01*
X75973216Y-72698456D01*
X75825646Y-72599853D01*
X75700147Y-72474354D01*
X75601544Y-72326784D01*
X75533624Y-72162812D01*
X75499000Y-71988741D01*
X75499000Y-71811259D01*
X75533624Y-71637188D01*
X75601544Y-71473216D01*
X75700147Y-71325646D01*
X75825646Y-71200147D01*
X75973216Y-71101544D01*
X76137188Y-71033624D01*
X76286488Y-71003927D01*
X76311258Y-70999000D01*
X76488742Y-70999000D01*
X76513512Y-71003927D01*
G37*
G36*
X73973512Y-71003927D02*
G01*
X74122812Y-71033624D01*
X74286784Y-71101544D01*
X74434354Y-71200147D01*
X74559853Y-71325646D01*
X74658456Y-71473216D01*
X74726376Y-71637188D01*
X74761000Y-71811259D01*
X74761000Y-71988741D01*
X74726376Y-72162812D01*
X74658456Y-72326784D01*
X74559853Y-72474354D01*
X74434354Y-72599853D01*
X74286784Y-72698456D01*
X74122812Y-72766376D01*
X73973512Y-72796073D01*
X73948742Y-72801000D01*
X73771258Y-72801000D01*
X73746488Y-72796073D01*
X73597188Y-72766376D01*
X73433216Y-72698456D01*
X73285646Y-72599853D01*
X73160147Y-72474354D01*
X73061544Y-72326784D01*
X72993624Y-72162812D01*
X72959000Y-71988741D01*
X72959000Y-71811259D01*
X72993624Y-71637188D01*
X73061544Y-71473216D01*
X73160147Y-71325646D01*
X73285646Y-71200147D01*
X73433216Y-71101544D01*
X73597188Y-71033624D01*
X73746488Y-71003927D01*
X73771258Y-70999000D01*
X73948742Y-70999000D01*
X73973512Y-71003927D01*
G37*
G36*
X73973512Y-68463927D02*
G01*
X74122812Y-68493624D01*
X74286784Y-68561544D01*
X74434354Y-68660147D01*
X74559853Y-68785646D01*
X74658456Y-68933216D01*
X74726376Y-69097188D01*
X74761000Y-69271259D01*
X74761000Y-69448741D01*
X74726376Y-69622812D01*
X74658456Y-69786784D01*
X74559853Y-69934354D01*
X74434354Y-70059853D01*
X74286784Y-70158456D01*
X74122812Y-70226376D01*
X73973512Y-70256073D01*
X73948742Y-70261000D01*
X73771258Y-70261000D01*
X73746488Y-70256073D01*
X73597188Y-70226376D01*
X73433216Y-70158456D01*
X73285646Y-70059853D01*
X73160147Y-69934354D01*
X73061544Y-69786784D01*
X72993624Y-69622812D01*
X72959000Y-69448741D01*
X72959000Y-69271259D01*
X72993624Y-69097188D01*
X73061544Y-68933216D01*
X73160147Y-68785646D01*
X73285646Y-68660147D01*
X73433216Y-68561544D01*
X73597188Y-68493624D01*
X73746488Y-68463927D01*
X73771258Y-68459000D01*
X73948742Y-68459000D01*
X73973512Y-68463927D01*
G37*
G36*
X76513512Y-68463927D02*
G01*
X76662812Y-68493624D01*
X76826784Y-68561544D01*
X76974354Y-68660147D01*
X77099853Y-68785646D01*
X77198456Y-68933216D01*
X77266376Y-69097188D01*
X77301000Y-69271259D01*
X77301000Y-69448741D01*
X77266376Y-69622812D01*
X77198456Y-69786784D01*
X77099853Y-69934354D01*
X76974354Y-70059853D01*
X76826784Y-70158456D01*
X76662812Y-70226376D01*
X76513512Y-70256073D01*
X76488742Y-70261000D01*
X76311258Y-70261000D01*
X76286488Y-70256073D01*
X76137188Y-70226376D01*
X75973216Y-70158456D01*
X75825646Y-70059853D01*
X75700147Y-69934354D01*
X75601544Y-69786784D01*
X75533624Y-69622812D01*
X75499000Y-69448741D01*
X75499000Y-69271259D01*
X75533624Y-69097188D01*
X75601544Y-68933216D01*
X75700147Y-68785646D01*
X75825646Y-68660147D01*
X75973216Y-68561544D01*
X76137188Y-68493624D01*
X76286488Y-68463927D01*
X76311258Y-68459000D01*
X76488742Y-68459000D01*
X76513512Y-68463927D01*
G37*
G36*
X76513512Y-65923927D02*
G01*
X76662812Y-65953624D01*
X76826784Y-66021544D01*
X76974354Y-66120147D01*
X77099853Y-66245646D01*
X77198456Y-66393216D01*
X77266376Y-66557188D01*
X77301000Y-66731259D01*
X77301000Y-66908741D01*
X77266376Y-67082812D01*
X77198456Y-67246784D01*
X77099853Y-67394354D01*
X76974354Y-67519853D01*
X76826784Y-67618456D01*
X76662812Y-67686376D01*
X76513512Y-67716073D01*
X76488742Y-67721000D01*
X76311258Y-67721000D01*
X76286488Y-67716073D01*
X76137188Y-67686376D01*
X75973216Y-67618456D01*
X75825646Y-67519853D01*
X75700147Y-67394354D01*
X75601544Y-67246784D01*
X75533624Y-67082812D01*
X75499000Y-66908741D01*
X75499000Y-66731259D01*
X75533624Y-66557188D01*
X75601544Y-66393216D01*
X75700147Y-66245646D01*
X75825646Y-66120147D01*
X75973216Y-66021544D01*
X76137188Y-65953624D01*
X76286488Y-65923927D01*
X76311258Y-65919000D01*
X76488742Y-65919000D01*
X76513512Y-65923927D01*
G37*
G36*
X73973512Y-65923927D02*
G01*
X74122812Y-65953624D01*
X74286784Y-66021544D01*
X74434354Y-66120147D01*
X74559853Y-66245646D01*
X74658456Y-66393216D01*
X74726376Y-66557188D01*
X74761000Y-66731259D01*
X74761000Y-66908741D01*
X74726376Y-67082812D01*
X74658456Y-67246784D01*
X74559853Y-67394354D01*
X74434354Y-67519853D01*
X74286784Y-67618456D01*
X74122812Y-67686376D01*
X73973512Y-67716073D01*
X73948742Y-67721000D01*
X73771258Y-67721000D01*
X73746488Y-67716073D01*
X73597188Y-67686376D01*
X73433216Y-67618456D01*
X73285646Y-67519853D01*
X73160147Y-67394354D01*
X73061544Y-67246784D01*
X72993624Y-67082812D01*
X72959000Y-66908741D01*
X72959000Y-66731259D01*
X72993624Y-66557188D01*
X73061544Y-66393216D01*
X73160147Y-66245646D01*
X73285646Y-66120147D01*
X73433216Y-66021544D01*
X73597188Y-65953624D01*
X73746488Y-65923927D01*
X73771258Y-65919000D01*
X73948742Y-65919000D01*
X73973512Y-65923927D01*
G37*
G36*
X73973512Y-63383927D02*
G01*
X74122812Y-63413624D01*
X74286784Y-63481544D01*
X74434354Y-63580147D01*
X74559853Y-63705646D01*
X74658456Y-63853216D01*
X74726376Y-64017188D01*
X74761000Y-64191259D01*
X74761000Y-64368741D01*
X74726376Y-64542812D01*
X74658456Y-64706784D01*
X74559853Y-64854354D01*
X74434354Y-64979853D01*
X74286784Y-65078456D01*
X74122812Y-65146376D01*
X73973512Y-65176073D01*
X73948742Y-65181000D01*
X73771258Y-65181000D01*
X73746488Y-65176073D01*
X73597188Y-65146376D01*
X73433216Y-65078456D01*
X73285646Y-64979853D01*
X73160147Y-64854354D01*
X73061544Y-64706784D01*
X72993624Y-64542812D01*
X72959000Y-64368741D01*
X72959000Y-64191259D01*
X72993624Y-64017188D01*
X73061544Y-63853216D01*
X73160147Y-63705646D01*
X73285646Y-63580147D01*
X73433216Y-63481544D01*
X73597188Y-63413624D01*
X73746488Y-63383927D01*
X73771258Y-63379000D01*
X73948742Y-63379000D01*
X73973512Y-63383927D01*
G37*
G36*
X76513512Y-63383927D02*
G01*
X76662812Y-63413624D01*
X76826784Y-63481544D01*
X76974354Y-63580147D01*
X77099853Y-63705646D01*
X77198456Y-63853216D01*
X77266376Y-64017188D01*
X77301000Y-64191259D01*
X77301000Y-64368741D01*
X77266376Y-64542812D01*
X77198456Y-64706784D01*
X77099853Y-64854354D01*
X76974354Y-64979853D01*
X76826784Y-65078456D01*
X76662812Y-65146376D01*
X76513512Y-65176073D01*
X76488742Y-65181000D01*
X76311258Y-65181000D01*
X76286488Y-65176073D01*
X76137188Y-65146376D01*
X75973216Y-65078456D01*
X75825646Y-64979853D01*
X75700147Y-64854354D01*
X75601544Y-64706784D01*
X75533624Y-64542812D01*
X75499000Y-64368741D01*
X75499000Y-64191259D01*
X75533624Y-64017188D01*
X75601544Y-63853216D01*
X75700147Y-63705646D01*
X75825646Y-63580147D01*
X75973216Y-63481544D01*
X76137188Y-63413624D01*
X76286488Y-63383927D01*
X76311258Y-63379000D01*
X76488742Y-63379000D01*
X76513512Y-63383927D01*
G37*
G36*
X159401000Y-63901000D02*
G01*
X157299000Y-63901000D01*
X157299000Y-61899000D01*
X159401000Y-61899000D01*
X159401000Y-63901000D01*
G37*
G36*
X144401000Y-63901000D02*
G01*
X142299000Y-63901000D01*
X142299000Y-61899000D01*
X144401000Y-61899000D01*
X144401000Y-63901000D01*
G37*
G36*
X148098228Y-61081703D02*
G01*
X148253100Y-61145853D01*
X148392481Y-61238985D01*
X148511015Y-61357519D01*
X148604147Y-61496900D01*
X148668297Y-61651772D01*
X148701000Y-61816184D01*
X148701000Y-61983816D01*
X148668297Y-62148228D01*
X148604147Y-62303100D01*
X148511015Y-62442481D01*
X148392481Y-62561015D01*
X148253100Y-62654147D01*
X148098228Y-62718297D01*
X147933816Y-62751000D01*
X147766184Y-62751000D01*
X147601772Y-62718297D01*
X147446900Y-62654147D01*
X147307519Y-62561015D01*
X147188985Y-62442481D01*
X147095853Y-62303100D01*
X147031703Y-62148228D01*
X146999000Y-61983816D01*
X146999000Y-61816184D01*
X147031703Y-61651772D01*
X147095853Y-61496900D01*
X147188985Y-61357519D01*
X147307519Y-61238985D01*
X147446900Y-61145853D01*
X147601772Y-61081703D01*
X147766184Y-61049000D01*
X147933816Y-61049000D01*
X148098228Y-61081703D01*
G37*
G36*
X76513512Y-60843927D02*
G01*
X76662812Y-60873624D01*
X76826784Y-60941544D01*
X76974354Y-61040147D01*
X77099853Y-61165646D01*
X77198456Y-61313216D01*
X77266376Y-61477188D01*
X77301000Y-61651259D01*
X77301000Y-61828741D01*
X77266376Y-62002812D01*
X77198456Y-62166784D01*
X77099853Y-62314354D01*
X76974354Y-62439853D01*
X76826784Y-62538456D01*
X76662812Y-62606376D01*
X76513512Y-62636073D01*
X76488742Y-62641000D01*
X76311258Y-62641000D01*
X76286488Y-62636073D01*
X76137188Y-62606376D01*
X75973216Y-62538456D01*
X75825646Y-62439853D01*
X75700147Y-62314354D01*
X75601544Y-62166784D01*
X75533624Y-62002812D01*
X75499000Y-61828741D01*
X75499000Y-61651259D01*
X75533624Y-61477188D01*
X75601544Y-61313216D01*
X75700147Y-61165646D01*
X75825646Y-61040147D01*
X75973216Y-60941544D01*
X76137188Y-60873624D01*
X76286488Y-60843927D01*
X76311258Y-60839000D01*
X76488742Y-60839000D01*
X76513512Y-60843927D01*
G37*
G36*
X73973512Y-60843927D02*
G01*
X74122812Y-60873624D01*
X74286784Y-60941544D01*
X74434354Y-61040147D01*
X74559853Y-61165646D01*
X74658456Y-61313216D01*
X74726376Y-61477188D01*
X74761000Y-61651259D01*
X74761000Y-61828741D01*
X74726376Y-62002812D01*
X74658456Y-62166784D01*
X74559853Y-62314354D01*
X74434354Y-62439853D01*
X74286784Y-62538456D01*
X74122812Y-62606376D01*
X73973512Y-62636073D01*
X73948742Y-62641000D01*
X73771258Y-62641000D01*
X73746488Y-62636073D01*
X73597188Y-62606376D01*
X73433216Y-62538456D01*
X73285646Y-62439853D01*
X73160147Y-62314354D01*
X73061544Y-62166784D01*
X72993624Y-62002812D01*
X72959000Y-61828741D01*
X72959000Y-61651259D01*
X72993624Y-61477188D01*
X73061544Y-61313216D01*
X73160147Y-61165646D01*
X73285646Y-61040147D01*
X73433216Y-60941544D01*
X73597188Y-60873624D01*
X73746488Y-60843927D01*
X73771258Y-60839000D01*
X73948742Y-60839000D01*
X73973512Y-60843927D01*
G37*
G36*
X73973512Y-58303927D02*
G01*
X74122812Y-58333624D01*
X74286784Y-58401544D01*
X74434354Y-58500147D01*
X74559853Y-58625646D01*
X74658456Y-58773216D01*
X74726376Y-58937188D01*
X74761000Y-59111259D01*
X74761000Y-59288741D01*
X74726376Y-59462812D01*
X74658456Y-59626784D01*
X74559853Y-59774354D01*
X74434354Y-59899853D01*
X74286784Y-59998456D01*
X74122812Y-60066376D01*
X73973512Y-60096073D01*
X73948742Y-60101000D01*
X73771258Y-60101000D01*
X73746488Y-60096073D01*
X73597188Y-60066376D01*
X73433216Y-59998456D01*
X73285646Y-59899853D01*
X73160147Y-59774354D01*
X73061544Y-59626784D01*
X72993624Y-59462812D01*
X72959000Y-59288741D01*
X72959000Y-59111259D01*
X72993624Y-58937188D01*
X73061544Y-58773216D01*
X73160147Y-58625646D01*
X73285646Y-58500147D01*
X73433216Y-58401544D01*
X73597188Y-58333624D01*
X73746488Y-58303927D01*
X73771258Y-58299000D01*
X73948742Y-58299000D01*
X73973512Y-58303927D01*
G37*
G36*
X76513512Y-58303927D02*
G01*
X76662812Y-58333624D01*
X76826784Y-58401544D01*
X76974354Y-58500147D01*
X77099853Y-58625646D01*
X77198456Y-58773216D01*
X77266376Y-58937188D01*
X77301000Y-59111259D01*
X77301000Y-59288741D01*
X77266376Y-59462812D01*
X77198456Y-59626784D01*
X77099853Y-59774354D01*
X76974354Y-59899853D01*
X76826784Y-59998456D01*
X76662812Y-60066376D01*
X76513512Y-60096073D01*
X76488742Y-60101000D01*
X76311258Y-60101000D01*
X76286488Y-60096073D01*
X76137188Y-60066376D01*
X75973216Y-59998456D01*
X75825646Y-59899853D01*
X75700147Y-59774354D01*
X75601544Y-59626784D01*
X75533624Y-59462812D01*
X75499000Y-59288741D01*
X75499000Y-59111259D01*
X75533624Y-58937188D01*
X75601544Y-58773216D01*
X75700147Y-58625646D01*
X75825646Y-58500147D01*
X75973216Y-58401544D01*
X76137188Y-58333624D01*
X76286488Y-58303927D01*
X76311258Y-58299000D01*
X76488742Y-58299000D01*
X76513512Y-58303927D01*
G37*
G36*
X159401000Y-59901000D02*
G01*
X157299000Y-59901000D01*
X157299000Y-57899000D01*
X159401000Y-57899000D01*
X159401000Y-59901000D01*
G37*
G36*
X144401000Y-59901000D02*
G01*
X142299000Y-59901000D01*
X142299000Y-57899000D01*
X144401000Y-57899000D01*
X144401000Y-59901000D01*
G37*
G36*
X76513512Y-55763927D02*
G01*
X76662812Y-55793624D01*
X76826784Y-55861544D01*
X76974354Y-55960147D01*
X77099853Y-56085646D01*
X77198456Y-56233216D01*
X77266376Y-56397188D01*
X77296073Y-56546488D01*
X77298963Y-56561015D01*
X77301000Y-56571259D01*
X77301000Y-56748741D01*
X77266376Y-56922812D01*
X77198456Y-57086784D01*
X77099853Y-57234354D01*
X76974354Y-57359853D01*
X76826784Y-57458456D01*
X76662812Y-57526376D01*
X76513512Y-57556073D01*
X76488742Y-57561000D01*
X76311258Y-57561000D01*
X76286488Y-57556073D01*
X76137188Y-57526376D01*
X75973216Y-57458456D01*
X75825646Y-57359853D01*
X75700147Y-57234354D01*
X75601544Y-57086784D01*
X75533624Y-56922812D01*
X75499000Y-56748741D01*
X75499000Y-56571259D01*
X75501038Y-56561015D01*
X75503927Y-56546488D01*
X75533624Y-56397188D01*
X75601544Y-56233216D01*
X75700147Y-56085646D01*
X75825646Y-55960147D01*
X75973216Y-55861544D01*
X76137188Y-55793624D01*
X76286488Y-55763927D01*
X76311258Y-55759000D01*
X76488742Y-55759000D01*
X76513512Y-55763927D01*
G37*
G36*
X73973512Y-55763927D02*
G01*
X74122812Y-55793624D01*
X74286784Y-55861544D01*
X74434354Y-55960147D01*
X74559853Y-56085646D01*
X74658456Y-56233216D01*
X74726376Y-56397188D01*
X74756073Y-56546488D01*
X74758963Y-56561015D01*
X74761000Y-56571259D01*
X74761000Y-56748741D01*
X74726376Y-56922812D01*
X74658456Y-57086784D01*
X74559853Y-57234354D01*
X74434354Y-57359853D01*
X74286784Y-57458456D01*
X74122812Y-57526376D01*
X73973512Y-57556073D01*
X73948742Y-57561000D01*
X73771258Y-57561000D01*
X73746488Y-57556073D01*
X73597188Y-57526376D01*
X73433216Y-57458456D01*
X73285646Y-57359853D01*
X73160147Y-57234354D01*
X73061544Y-57086784D01*
X72993624Y-56922812D01*
X72959000Y-56748741D01*
X72959000Y-56571259D01*
X72961038Y-56561015D01*
X72963927Y-56546488D01*
X72993624Y-56397188D01*
X73061544Y-56233216D01*
X73160147Y-56085646D01*
X73285646Y-55960147D01*
X73433216Y-55861544D01*
X73597188Y-55793624D01*
X73746488Y-55763927D01*
X73771258Y-55759000D01*
X73948742Y-55759000D01*
X73973512Y-55763927D01*
G37*
G36*
X154098228Y-55081703D02*
G01*
X154253100Y-55145853D01*
X154392481Y-55238985D01*
X154511015Y-55357519D01*
X154604147Y-55496900D01*
X154668297Y-55651772D01*
X154701000Y-55816184D01*
X154701000Y-55983816D01*
X154668297Y-56148228D01*
X154604147Y-56303100D01*
X154511015Y-56442481D01*
X154392481Y-56561015D01*
X154253100Y-56654147D01*
X154098228Y-56718297D01*
X153933816Y-56751000D01*
X153766184Y-56751000D01*
X153601772Y-56718297D01*
X153446900Y-56654147D01*
X153307519Y-56561015D01*
X153188985Y-56442481D01*
X153095853Y-56303100D01*
X153031703Y-56148228D01*
X152999000Y-55983816D01*
X152999000Y-55816184D01*
X153031703Y-55651772D01*
X153095853Y-55496900D01*
X153188985Y-55357519D01*
X153307519Y-55238985D01*
X153446900Y-55145853D01*
X153601772Y-55081703D01*
X153766184Y-55049000D01*
X153933816Y-55049000D01*
X154098228Y-55081703D01*
G37*
G36*
X144401000Y-55901000D02*
G01*
X142299000Y-55901000D01*
X142299000Y-53899000D01*
X144401000Y-53899000D01*
X144401000Y-55901000D01*
G37*
G36*
X159401000Y-55901000D02*
G01*
X157299000Y-55901000D01*
X157299000Y-53899000D01*
X159401000Y-53899000D01*
X159401000Y-55901000D01*
G37*
G36*
X76513512Y-53223927D02*
G01*
X76662812Y-53253624D01*
X76826784Y-53321544D01*
X76974354Y-53420147D01*
X77099853Y-53545646D01*
X77198456Y-53693216D01*
X77266376Y-53857188D01*
X77301000Y-54031259D01*
X77301000Y-54208741D01*
X77266376Y-54382812D01*
X77198456Y-54546784D01*
X77099853Y-54694354D01*
X76974354Y-54819853D01*
X76826784Y-54918456D01*
X76662812Y-54986376D01*
X76513512Y-55016073D01*
X76488742Y-55021000D01*
X76311258Y-55021000D01*
X76286488Y-55016073D01*
X76137188Y-54986376D01*
X75973216Y-54918456D01*
X75825646Y-54819853D01*
X75700147Y-54694354D01*
X75601544Y-54546784D01*
X75533624Y-54382812D01*
X75499000Y-54208741D01*
X75499000Y-54031259D01*
X75533624Y-53857188D01*
X75601544Y-53693216D01*
X75700147Y-53545646D01*
X75825646Y-53420147D01*
X75973216Y-53321544D01*
X76137188Y-53253624D01*
X76286488Y-53223927D01*
X76311258Y-53219000D01*
X76488742Y-53219000D01*
X76513512Y-53223927D01*
G37*
G36*
X73973512Y-53223927D02*
G01*
X74122812Y-53253624D01*
X74286784Y-53321544D01*
X74434354Y-53420147D01*
X74559853Y-53545646D01*
X74658456Y-53693216D01*
X74726376Y-53857188D01*
X74761000Y-54031259D01*
X74761000Y-54208741D01*
X74726376Y-54382812D01*
X74658456Y-54546784D01*
X74559853Y-54694354D01*
X74434354Y-54819853D01*
X74286784Y-54918456D01*
X74122812Y-54986376D01*
X73973512Y-55016073D01*
X73948742Y-55021000D01*
X73771258Y-55021000D01*
X73746488Y-55016073D01*
X73597188Y-54986376D01*
X73433216Y-54918456D01*
X73285646Y-54819853D01*
X73160147Y-54694354D01*
X73061544Y-54546784D01*
X72993624Y-54382812D01*
X72959000Y-54208741D01*
X72959000Y-54031259D01*
X72993624Y-53857188D01*
X73061544Y-53693216D01*
X73160147Y-53545646D01*
X73285646Y-53420147D01*
X73433216Y-53321544D01*
X73597188Y-53253624D01*
X73746488Y-53223927D01*
X73771258Y-53219000D01*
X73948742Y-53219000D01*
X73973512Y-53223927D01*
G37*
G36*
X161438674Y-51928465D02*
G01*
X161476367Y-51939899D01*
X161511103Y-51958466D01*
X161541548Y-51983452D01*
X161566534Y-52013897D01*
X161585101Y-52048633D01*
X161596535Y-52086326D01*
X161601000Y-52131661D01*
X161601000Y-52968339D01*
X161596535Y-53013674D01*
X161585101Y-53051367D01*
X161566534Y-53086103D01*
X161541548Y-53116548D01*
X161511103Y-53141534D01*
X161476367Y-53160101D01*
X161438674Y-53171535D01*
X161393339Y-53176000D01*
X160306661Y-53176000D01*
X160261326Y-53171535D01*
X160223633Y-53160101D01*
X160188897Y-53141534D01*
X160158452Y-53116548D01*
X160133466Y-53086103D01*
X160114899Y-53051367D01*
X160103465Y-53013674D01*
X160099000Y-52968339D01*
X160099000Y-52131661D01*
X160103465Y-52086326D01*
X160114899Y-52048633D01*
X160133466Y-52013897D01*
X160158452Y-51983452D01*
X160188897Y-51958466D01*
X160223633Y-51939899D01*
X160261326Y-51928465D01*
X160306661Y-51924000D01*
X161393339Y-51924000D01*
X161438674Y-51928465D01*
G37*
G36*
X158988674Y-51928465D02*
G01*
X159026367Y-51939899D01*
X159061103Y-51958466D01*
X159091548Y-51983452D01*
X159116534Y-52013897D01*
X159135101Y-52048633D01*
X159146535Y-52086326D01*
X159151000Y-52131661D01*
X159151000Y-52968339D01*
X159146535Y-53013674D01*
X159135101Y-53051367D01*
X159116534Y-53086103D01*
X159091548Y-53116548D01*
X159061103Y-53141534D01*
X159026367Y-53160101D01*
X158988674Y-53171535D01*
X158943339Y-53176000D01*
X157856661Y-53176000D01*
X157811326Y-53171535D01*
X157773633Y-53160101D01*
X157738897Y-53141534D01*
X157708452Y-53116548D01*
X157683466Y-53086103D01*
X157664899Y-53051367D01*
X157653465Y-53013674D01*
X157649000Y-52968339D01*
X157649000Y-52131661D01*
X157653465Y-52086326D01*
X157664899Y-52048633D01*
X157683466Y-52013897D01*
X157708452Y-51983452D01*
X157738897Y-51958466D01*
X157773633Y-51939899D01*
X157811326Y-51928465D01*
X157856661Y-51924000D01*
X158943339Y-51924000D01*
X158988674Y-51928465D01*
G37*
G36*
X143938674Y-51928465D02*
G01*
X143976367Y-51939899D01*
X144011103Y-51958466D01*
X144041548Y-51983452D01*
X144066534Y-52013897D01*
X144085101Y-52048633D01*
X144096535Y-52086326D01*
X144101000Y-52131661D01*
X144101000Y-52968339D01*
X144096535Y-53013674D01*
X144085101Y-53051367D01*
X144066534Y-53086103D01*
X144041548Y-53116548D01*
X144011103Y-53141534D01*
X143976367Y-53160101D01*
X143938674Y-53171535D01*
X143893339Y-53176000D01*
X142806661Y-53176000D01*
X142761326Y-53171535D01*
X142723633Y-53160101D01*
X142688897Y-53141534D01*
X142658452Y-53116548D01*
X142633466Y-53086103D01*
X142614899Y-53051367D01*
X142603465Y-53013674D01*
X142599000Y-52968339D01*
X142599000Y-52131661D01*
X142603465Y-52086326D01*
X142614899Y-52048633D01*
X142633466Y-52013897D01*
X142658452Y-51983452D01*
X142688897Y-51958466D01*
X142723633Y-51939899D01*
X142761326Y-51928465D01*
X142806661Y-51924000D01*
X143893339Y-51924000D01*
X143938674Y-51928465D01*
G37*
G36*
X141538674Y-51928465D02*
G01*
X141576367Y-51939899D01*
X141611103Y-51958466D01*
X141641548Y-51983452D01*
X141666534Y-52013897D01*
X141685101Y-52048633D01*
X141696535Y-52086326D01*
X141701000Y-52131661D01*
X141701000Y-52968339D01*
X141696535Y-53013674D01*
X141685101Y-53051367D01*
X141666534Y-53086103D01*
X141641548Y-53116548D01*
X141611103Y-53141534D01*
X141576367Y-53160101D01*
X141538674Y-53171535D01*
X141493339Y-53176000D01*
X140406661Y-53176000D01*
X140361326Y-53171535D01*
X140323633Y-53160101D01*
X140288897Y-53141534D01*
X140258452Y-53116548D01*
X140233466Y-53086103D01*
X140214899Y-53051367D01*
X140203465Y-53013674D01*
X140199000Y-52968339D01*
X140199000Y-52131661D01*
X140203465Y-52086326D01*
X140214899Y-52048633D01*
X140233466Y-52013897D01*
X140258452Y-51983452D01*
X140288897Y-51958466D01*
X140323633Y-51939899D01*
X140361326Y-51928465D01*
X140406661Y-51924000D01*
X141493339Y-51924000D01*
X141538674Y-51928465D01*
G37*
G36*
X163988674Y-51903465D02*
G01*
X164026367Y-51914899D01*
X164061103Y-51933466D01*
X164091548Y-51958452D01*
X164116534Y-51988897D01*
X164135101Y-52023633D01*
X164146535Y-52061326D01*
X164151000Y-52106661D01*
X164151000Y-52943339D01*
X164146535Y-52988674D01*
X164135101Y-53026367D01*
X164116534Y-53061103D01*
X164091548Y-53091548D01*
X164061103Y-53116534D01*
X164026367Y-53135101D01*
X163988674Y-53146535D01*
X163943339Y-53151000D01*
X162856661Y-53151000D01*
X162811326Y-53146535D01*
X162773633Y-53135101D01*
X162738897Y-53116534D01*
X162708452Y-53091548D01*
X162683466Y-53061103D01*
X162664899Y-53026367D01*
X162653465Y-52988674D01*
X162649000Y-52943339D01*
X162649000Y-52106661D01*
X162653465Y-52061326D01*
X162664899Y-52023633D01*
X162683466Y-51988897D01*
X162708452Y-51958452D01*
X162738897Y-51933466D01*
X162773633Y-51914899D01*
X162811326Y-51903465D01*
X162856661Y-51899000D01*
X163943339Y-51899000D01*
X163988674Y-51903465D01*
G37*
G36*
X73973512Y-50683927D02*
G01*
X74122812Y-50713624D01*
X74286784Y-50781544D01*
X74434354Y-50880147D01*
X74559853Y-51005646D01*
X74658456Y-51153216D01*
X74726376Y-51317188D01*
X74761000Y-51491259D01*
X74761000Y-51668741D01*
X74726376Y-51842812D01*
X74658456Y-52006784D01*
X74559853Y-52154354D01*
X74434354Y-52279853D01*
X74286784Y-52378456D01*
X74122812Y-52446376D01*
X73973512Y-52476073D01*
X73948742Y-52481000D01*
X73771258Y-52481000D01*
X73746488Y-52476073D01*
X73597188Y-52446376D01*
X73433216Y-52378456D01*
X73285646Y-52279853D01*
X73160147Y-52154354D01*
X73061544Y-52006784D01*
X72993624Y-51842812D01*
X72959000Y-51668741D01*
X72959000Y-51491259D01*
X72993624Y-51317188D01*
X73061544Y-51153216D01*
X73160147Y-51005646D01*
X73285646Y-50880147D01*
X73433216Y-50781544D01*
X73597188Y-50713624D01*
X73746488Y-50683927D01*
X73771258Y-50679000D01*
X73948742Y-50679000D01*
X73973512Y-50683927D01*
G37*
G36*
X76513512Y-50683927D02*
G01*
X76662812Y-50713624D01*
X76826784Y-50781544D01*
X76974354Y-50880147D01*
X77099853Y-51005646D01*
X77198456Y-51153216D01*
X77266376Y-51317188D01*
X77301000Y-51491259D01*
X77301000Y-51668741D01*
X77266376Y-51842812D01*
X77198456Y-52006784D01*
X77099853Y-52154354D01*
X76974354Y-52279853D01*
X76826784Y-52378456D01*
X76662812Y-52446376D01*
X76513512Y-52476073D01*
X76488742Y-52481000D01*
X76311258Y-52481000D01*
X76286488Y-52476073D01*
X76137188Y-52446376D01*
X75973216Y-52378456D01*
X75825646Y-52279853D01*
X75700147Y-52154354D01*
X75601544Y-52006784D01*
X75533624Y-51842812D01*
X75499000Y-51668741D01*
X75499000Y-51491259D01*
X75533624Y-51317188D01*
X75601544Y-51153216D01*
X75700147Y-51005646D01*
X75825646Y-50880147D01*
X75973216Y-50781544D01*
X76137188Y-50713624D01*
X76286488Y-50683927D01*
X76311258Y-50679000D01*
X76488742Y-50679000D01*
X76513512Y-50683927D01*
G37*
G36*
X141538674Y-49878465D02*
G01*
X141576367Y-49889899D01*
X141611103Y-49908466D01*
X141641548Y-49933452D01*
X141666534Y-49963897D01*
X141685101Y-49998633D01*
X141696535Y-50036326D01*
X141701000Y-50081661D01*
X141701000Y-50918339D01*
X141696535Y-50963674D01*
X141685101Y-51001367D01*
X141666534Y-51036103D01*
X141641548Y-51066548D01*
X141611103Y-51091534D01*
X141576367Y-51110101D01*
X141538674Y-51121535D01*
X141493339Y-51126000D01*
X140406661Y-51126000D01*
X140361326Y-51121535D01*
X140323633Y-51110101D01*
X140288897Y-51091534D01*
X140258452Y-51066548D01*
X140233466Y-51036103D01*
X140214899Y-51001367D01*
X140203465Y-50963674D01*
X140199000Y-50918339D01*
X140199000Y-50081661D01*
X140203465Y-50036326D01*
X140214899Y-49998633D01*
X140233466Y-49963897D01*
X140258452Y-49933452D01*
X140288897Y-49908466D01*
X140323633Y-49889899D01*
X140361326Y-49878465D01*
X140406661Y-49874000D01*
X141493339Y-49874000D01*
X141538674Y-49878465D01*
G37*
G36*
X143938674Y-49878465D02*
G01*
X143976367Y-49889899D01*
X144011103Y-49908466D01*
X144041548Y-49933452D01*
X144066534Y-49963897D01*
X144085101Y-49998633D01*
X144096535Y-50036326D01*
X144101000Y-50081661D01*
X144101000Y-50918339D01*
X144096535Y-50963674D01*
X144085101Y-51001367D01*
X144066534Y-51036103D01*
X144041548Y-51066548D01*
X144011103Y-51091534D01*
X143976367Y-51110101D01*
X143938674Y-51121535D01*
X143893339Y-51126000D01*
X142806661Y-51126000D01*
X142761326Y-51121535D01*
X142723633Y-51110101D01*
X142688897Y-51091534D01*
X142658452Y-51066548D01*
X142633466Y-51036103D01*
X142614899Y-51001367D01*
X142603465Y-50963674D01*
X142599000Y-50918339D01*
X142599000Y-50081661D01*
X142603465Y-50036326D01*
X142614899Y-49998633D01*
X142633466Y-49963897D01*
X142658452Y-49933452D01*
X142688897Y-49908466D01*
X142723633Y-49889899D01*
X142761326Y-49878465D01*
X142806661Y-49874000D01*
X143893339Y-49874000D01*
X143938674Y-49878465D01*
G37*
G36*
X158988674Y-49878465D02*
G01*
X159026367Y-49889899D01*
X159061103Y-49908466D01*
X159091548Y-49933452D01*
X159116534Y-49963897D01*
X159135101Y-49998633D01*
X159146535Y-50036326D01*
X159151000Y-50081661D01*
X159151000Y-50918339D01*
X159146535Y-50963674D01*
X159135101Y-51001367D01*
X159116534Y-51036103D01*
X159091548Y-51066548D01*
X159061103Y-51091534D01*
X159026367Y-51110101D01*
X158988674Y-51121535D01*
X158943339Y-51126000D01*
X157856661Y-51126000D01*
X157811326Y-51121535D01*
X157773633Y-51110101D01*
X157738897Y-51091534D01*
X157708452Y-51066548D01*
X157683466Y-51036103D01*
X157664899Y-51001367D01*
X157653465Y-50963674D01*
X157649000Y-50918339D01*
X157649000Y-50081661D01*
X157653465Y-50036326D01*
X157664899Y-49998633D01*
X157683466Y-49963897D01*
X157708452Y-49933452D01*
X157738897Y-49908466D01*
X157773633Y-49889899D01*
X157811326Y-49878465D01*
X157856661Y-49874000D01*
X158943339Y-49874000D01*
X158988674Y-49878465D01*
G37*
G36*
X161438674Y-49878465D02*
G01*
X161476367Y-49889899D01*
X161511103Y-49908466D01*
X161541548Y-49933452D01*
X161566534Y-49963897D01*
X161585101Y-49998633D01*
X161596535Y-50036326D01*
X161601000Y-50081661D01*
X161601000Y-50918339D01*
X161596535Y-50963674D01*
X161585101Y-51001367D01*
X161566534Y-51036103D01*
X161541548Y-51066548D01*
X161511103Y-51091534D01*
X161476367Y-51110101D01*
X161438674Y-51121535D01*
X161393339Y-51126000D01*
X160306661Y-51126000D01*
X160261326Y-51121535D01*
X160223633Y-51110101D01*
X160188897Y-51091534D01*
X160158452Y-51066548D01*
X160133466Y-51036103D01*
X160114899Y-51001367D01*
X160103465Y-50963674D01*
X160099000Y-50918339D01*
X160099000Y-50081661D01*
X160103465Y-50036326D01*
X160114899Y-49998633D01*
X160133466Y-49963897D01*
X160158452Y-49933452D01*
X160188897Y-49908466D01*
X160223633Y-49889899D01*
X160261326Y-49878465D01*
X160306661Y-49874000D01*
X161393339Y-49874000D01*
X161438674Y-49878465D01*
G37*
G36*
X163988674Y-49853465D02*
G01*
X164026367Y-49864899D01*
X164061103Y-49883466D01*
X164091548Y-49908452D01*
X164116534Y-49938897D01*
X164135101Y-49973633D01*
X164146535Y-50011326D01*
X164151000Y-50056661D01*
X164151000Y-50893339D01*
X164146535Y-50938674D01*
X164135101Y-50976367D01*
X164116534Y-51011103D01*
X164091548Y-51041548D01*
X164061103Y-51066534D01*
X164026367Y-51085101D01*
X163988674Y-51096535D01*
X163943339Y-51101000D01*
X162856661Y-51101000D01*
X162811326Y-51096535D01*
X162773633Y-51085101D01*
X162738897Y-51066534D01*
X162708452Y-51041548D01*
X162683466Y-51011103D01*
X162664899Y-50976367D01*
X162653465Y-50938674D01*
X162649000Y-50893339D01*
X162649000Y-50056661D01*
X162653465Y-50011326D01*
X162664899Y-49973633D01*
X162683466Y-49938897D01*
X162708452Y-49908452D01*
X162738897Y-49883466D01*
X162773633Y-49864899D01*
X162811326Y-49853465D01*
X162856661Y-49849000D01*
X163943339Y-49849000D01*
X163988674Y-49853465D01*
G37*
G36*
X76513512Y-48143927D02*
G01*
X76662812Y-48173624D01*
X76826784Y-48241544D01*
X76974354Y-48340147D01*
X77099853Y-48465646D01*
X77198456Y-48613216D01*
X77266376Y-48777188D01*
X77301000Y-48951259D01*
X77301000Y-49128741D01*
X77266376Y-49302812D01*
X77198456Y-49466784D01*
X77099853Y-49614354D01*
X76974354Y-49739853D01*
X76826784Y-49838456D01*
X76662812Y-49906376D01*
X76526688Y-49933452D01*
X76488742Y-49941000D01*
X76311258Y-49941000D01*
X76273312Y-49933452D01*
X76137188Y-49906376D01*
X75973216Y-49838456D01*
X75825646Y-49739853D01*
X75700147Y-49614354D01*
X75601544Y-49466784D01*
X75533624Y-49302812D01*
X75499000Y-49128741D01*
X75499000Y-48951259D01*
X75533624Y-48777188D01*
X75601544Y-48613216D01*
X75700147Y-48465646D01*
X75825646Y-48340147D01*
X75973216Y-48241544D01*
X76137188Y-48173624D01*
X76286488Y-48143927D01*
X76311258Y-48139000D01*
X76488742Y-48139000D01*
X76513512Y-48143927D01*
G37*
G36*
X73973512Y-48143927D02*
G01*
X74122812Y-48173624D01*
X74286784Y-48241544D01*
X74434354Y-48340147D01*
X74559853Y-48465646D01*
X74658456Y-48613216D01*
X74726376Y-48777188D01*
X74761000Y-48951259D01*
X74761000Y-49128741D01*
X74726376Y-49302812D01*
X74658456Y-49466784D01*
X74559853Y-49614354D01*
X74434354Y-49739853D01*
X74286784Y-49838456D01*
X74122812Y-49906376D01*
X73986688Y-49933452D01*
X73948742Y-49941000D01*
X73771258Y-49941000D01*
X73733312Y-49933452D01*
X73597188Y-49906376D01*
X73433216Y-49838456D01*
X73285646Y-49739853D01*
X73160147Y-49614354D01*
X73061544Y-49466784D01*
X72993624Y-49302812D01*
X72959000Y-49128741D01*
X72959000Y-48951259D01*
X72993624Y-48777188D01*
X73061544Y-48613216D01*
X73160147Y-48465646D01*
X73285646Y-48340147D01*
X73433216Y-48241544D01*
X73597188Y-48173624D01*
X73746488Y-48143927D01*
X73771258Y-48139000D01*
X73948742Y-48139000D01*
X73973512Y-48143927D01*
G37*
G36*
X73973512Y-45603927D02*
G01*
X74122812Y-45633624D01*
X74286784Y-45701544D01*
X74434354Y-45800147D01*
X74559853Y-45925646D01*
X74658456Y-46073216D01*
X74726376Y-46237188D01*
X74761000Y-46411259D01*
X74761000Y-46588741D01*
X74726376Y-46762812D01*
X74658456Y-46926784D01*
X74559853Y-47074354D01*
X74434354Y-47199853D01*
X74286784Y-47298456D01*
X74122812Y-47366376D01*
X73973512Y-47396073D01*
X73948742Y-47401000D01*
X73771258Y-47401000D01*
X73746488Y-47396073D01*
X73597188Y-47366376D01*
X73433216Y-47298456D01*
X73285646Y-47199853D01*
X73160147Y-47074354D01*
X73061544Y-46926784D01*
X72993624Y-46762812D01*
X72959000Y-46588741D01*
X72959000Y-46411259D01*
X72993624Y-46237188D01*
X73061544Y-46073216D01*
X73160147Y-45925646D01*
X73285646Y-45800147D01*
X73433216Y-45701544D01*
X73597188Y-45633624D01*
X73746488Y-45603927D01*
X73771258Y-45599000D01*
X73948742Y-45599000D01*
X73973512Y-45603927D01*
G37*
G36*
X76513512Y-45603927D02*
G01*
X76662812Y-45633624D01*
X76826784Y-45701544D01*
X76974354Y-45800147D01*
X77099853Y-45925646D01*
X77198456Y-46073216D01*
X77266376Y-46237188D01*
X77301000Y-46411259D01*
X77301000Y-46588741D01*
X77266376Y-46762812D01*
X77198456Y-46926784D01*
X77099853Y-47074354D01*
X76974354Y-47199853D01*
X76826784Y-47298456D01*
X76662812Y-47366376D01*
X76513512Y-47396073D01*
X76488742Y-47401000D01*
X76311258Y-47401000D01*
X76286488Y-47396073D01*
X76137188Y-47366376D01*
X75973216Y-47298456D01*
X75825646Y-47199853D01*
X75700147Y-47074354D01*
X75601544Y-46926784D01*
X75533624Y-46762812D01*
X75499000Y-46588741D01*
X75499000Y-46411259D01*
X75533624Y-46237188D01*
X75601544Y-46073216D01*
X75700147Y-45925646D01*
X75825646Y-45800147D01*
X75973216Y-45701544D01*
X76137188Y-45633624D01*
X76286488Y-45603927D01*
X76311258Y-45599000D01*
X76488742Y-45599000D01*
X76513512Y-45603927D01*
G37*
G36*
X76513512Y-43063927D02*
G01*
X76662812Y-43093624D01*
X76826784Y-43161544D01*
X76974354Y-43260147D01*
X77099853Y-43385646D01*
X77198456Y-43533216D01*
X77266376Y-43697188D01*
X77301000Y-43871259D01*
X77301000Y-44048741D01*
X77266376Y-44222812D01*
X77198456Y-44386784D01*
X77099853Y-44534354D01*
X76974354Y-44659853D01*
X76826784Y-44758456D01*
X76662812Y-44826376D01*
X76513512Y-44856073D01*
X76488742Y-44861000D01*
X76311258Y-44861000D01*
X76286488Y-44856073D01*
X76137188Y-44826376D01*
X75973216Y-44758456D01*
X75825646Y-44659853D01*
X75700147Y-44534354D01*
X75601544Y-44386784D01*
X75533624Y-44222812D01*
X75499000Y-44048741D01*
X75499000Y-43871259D01*
X75533624Y-43697188D01*
X75601544Y-43533216D01*
X75700147Y-43385646D01*
X75825646Y-43260147D01*
X75973216Y-43161544D01*
X76137188Y-43093624D01*
X76286488Y-43063927D01*
X76311258Y-43059000D01*
X76488742Y-43059000D01*
X76513512Y-43063927D01*
G37*
G36*
X73973512Y-43063927D02*
G01*
X74122812Y-43093624D01*
X74286784Y-43161544D01*
X74434354Y-43260147D01*
X74559853Y-43385646D01*
X74658456Y-43533216D01*
X74726376Y-43697188D01*
X74761000Y-43871259D01*
X74761000Y-44048741D01*
X74726376Y-44222812D01*
X74658456Y-44386784D01*
X74559853Y-44534354D01*
X74434354Y-44659853D01*
X74286784Y-44758456D01*
X74122812Y-44826376D01*
X73973512Y-44856073D01*
X73948742Y-44861000D01*
X73771258Y-44861000D01*
X73746488Y-44856073D01*
X73597188Y-44826376D01*
X73433216Y-44758456D01*
X73285646Y-44659853D01*
X73160147Y-44534354D01*
X73061544Y-44386784D01*
X72993624Y-44222812D01*
X72959000Y-44048741D01*
X72959000Y-43871259D01*
X72993624Y-43697188D01*
X73061544Y-43533216D01*
X73160147Y-43385646D01*
X73285646Y-43260147D01*
X73433216Y-43161544D01*
X73597188Y-43093624D01*
X73746488Y-43063927D01*
X73771258Y-43059000D01*
X73948742Y-43059000D01*
X73973512Y-43063927D01*
G37*
G36*
X73973512Y-40523927D02*
G01*
X74122812Y-40553624D01*
X74286784Y-40621544D01*
X74434354Y-40720147D01*
X74559853Y-40845646D01*
X74658456Y-40993216D01*
X74726376Y-41157188D01*
X74761000Y-41331259D01*
X74761000Y-41508741D01*
X74726376Y-41682812D01*
X74658456Y-41846784D01*
X74559853Y-41994354D01*
X74434354Y-42119853D01*
X74286784Y-42218456D01*
X74122812Y-42286376D01*
X73973512Y-42316073D01*
X73948742Y-42321000D01*
X73771258Y-42321000D01*
X73746488Y-42316073D01*
X73597188Y-42286376D01*
X73433216Y-42218456D01*
X73285646Y-42119853D01*
X73160147Y-41994354D01*
X73061544Y-41846784D01*
X72993624Y-41682812D01*
X72959000Y-41508741D01*
X72959000Y-41331259D01*
X72993624Y-41157188D01*
X73061544Y-40993216D01*
X73160147Y-40845646D01*
X73285646Y-40720147D01*
X73433216Y-40621544D01*
X73597188Y-40553624D01*
X73746488Y-40523927D01*
X73771258Y-40519000D01*
X73948742Y-40519000D01*
X73973512Y-40523927D01*
G37*
G36*
X76513512Y-40523927D02*
G01*
X76662812Y-40553624D01*
X76826784Y-40621544D01*
X76974354Y-40720147D01*
X77099853Y-40845646D01*
X77198456Y-40993216D01*
X77266376Y-41157188D01*
X77301000Y-41331259D01*
X77301000Y-41508741D01*
X77266376Y-41682812D01*
X77198456Y-41846784D01*
X77099853Y-41994354D01*
X76974354Y-42119853D01*
X76826784Y-42218456D01*
X76662812Y-42286376D01*
X76513512Y-42316073D01*
X76488742Y-42321000D01*
X76311258Y-42321000D01*
X76286488Y-42316073D01*
X76137188Y-42286376D01*
X75973216Y-42218456D01*
X75825646Y-42119853D01*
X75700147Y-41994354D01*
X75601544Y-41846784D01*
X75533624Y-41682812D01*
X75499000Y-41508741D01*
X75499000Y-41331259D01*
X75533624Y-41157188D01*
X75601544Y-40993216D01*
X75700147Y-40845646D01*
X75825646Y-40720147D01*
X75973216Y-40621544D01*
X76137188Y-40553624D01*
X76286488Y-40523927D01*
X76311258Y-40519000D01*
X76488742Y-40519000D01*
X76513512Y-40523927D01*
G37*
G36*
X76513512Y-37983927D02*
G01*
X76662812Y-38013624D01*
X76826784Y-38081544D01*
X76974354Y-38180147D01*
X77099853Y-38305646D01*
X77198456Y-38453216D01*
X77266376Y-38617188D01*
X77301000Y-38791259D01*
X77301000Y-38968741D01*
X77266376Y-39142812D01*
X77198456Y-39306784D01*
X77099853Y-39454354D01*
X76974354Y-39579853D01*
X76826784Y-39678456D01*
X76662812Y-39746376D01*
X76513512Y-39776073D01*
X76488742Y-39781000D01*
X76311258Y-39781000D01*
X76286488Y-39776073D01*
X76137188Y-39746376D01*
X75973216Y-39678456D01*
X75825646Y-39579853D01*
X75700147Y-39454354D01*
X75601544Y-39306784D01*
X75533624Y-39142812D01*
X75499000Y-38968741D01*
X75499000Y-38791259D01*
X75533624Y-38617188D01*
X75601544Y-38453216D01*
X75700147Y-38305646D01*
X75825646Y-38180147D01*
X75973216Y-38081544D01*
X76137188Y-38013624D01*
X76286488Y-37983927D01*
X76311258Y-37979000D01*
X76488742Y-37979000D01*
X76513512Y-37983927D01*
G37*
G36*
X73973512Y-37983927D02*
G01*
X74122812Y-38013624D01*
X74286784Y-38081544D01*
X74434354Y-38180147D01*
X74559853Y-38305646D01*
X74658456Y-38453216D01*
X74726376Y-38617188D01*
X74761000Y-38791259D01*
X74761000Y-38968741D01*
X74726376Y-39142812D01*
X74658456Y-39306784D01*
X74559853Y-39454354D01*
X74434354Y-39579853D01*
X74286784Y-39678456D01*
X74122812Y-39746376D01*
X73973512Y-39776073D01*
X73948742Y-39781000D01*
X73771258Y-39781000D01*
X73746488Y-39776073D01*
X73597188Y-39746376D01*
X73433216Y-39678456D01*
X73285646Y-39579853D01*
X73160147Y-39454354D01*
X73061544Y-39306784D01*
X72993624Y-39142812D01*
X72959000Y-38968741D01*
X72959000Y-38791259D01*
X72993624Y-38617188D01*
X73061544Y-38453216D01*
X73160147Y-38305646D01*
X73285646Y-38180147D01*
X73433216Y-38081544D01*
X73597188Y-38013624D01*
X73746488Y-37983927D01*
X73771258Y-37979000D01*
X73948742Y-37979000D01*
X73973512Y-37983927D01*
G37*
G36*
X73973512Y-35443927D02*
G01*
X74122812Y-35473624D01*
X74286784Y-35541544D01*
X74434354Y-35640147D01*
X74559853Y-35765646D01*
X74658456Y-35913216D01*
X74726376Y-36077188D01*
X74761000Y-36251259D01*
X74761000Y-36428741D01*
X74726376Y-36602812D01*
X74658456Y-36766784D01*
X74559853Y-36914354D01*
X74434354Y-37039853D01*
X74286784Y-37138456D01*
X74122812Y-37206376D01*
X73973512Y-37236073D01*
X73948742Y-37241000D01*
X73771258Y-37241000D01*
X73746488Y-37236073D01*
X73597188Y-37206376D01*
X73433216Y-37138456D01*
X73285646Y-37039853D01*
X73160147Y-36914354D01*
X73061544Y-36766784D01*
X72993624Y-36602812D01*
X72959000Y-36428741D01*
X72959000Y-36251259D01*
X72993624Y-36077188D01*
X73061544Y-35913216D01*
X73160147Y-35765646D01*
X73285646Y-35640147D01*
X73433216Y-35541544D01*
X73597188Y-35473624D01*
X73746488Y-35443927D01*
X73771258Y-35439000D01*
X73948742Y-35439000D01*
X73973512Y-35443927D01*
G37*
G36*
X76513512Y-35443927D02*
G01*
X76662812Y-35473624D01*
X76826784Y-35541544D01*
X76974354Y-35640147D01*
X77099853Y-35765646D01*
X77198456Y-35913216D01*
X77266376Y-36077188D01*
X77301000Y-36251259D01*
X77301000Y-36428741D01*
X77266376Y-36602812D01*
X77198456Y-36766784D01*
X77099853Y-36914354D01*
X76974354Y-37039853D01*
X76826784Y-37138456D01*
X76662812Y-37206376D01*
X76513512Y-37236073D01*
X76488742Y-37241000D01*
X76311258Y-37241000D01*
X76286488Y-37236073D01*
X76137188Y-37206376D01*
X75973216Y-37138456D01*
X75825646Y-37039853D01*
X75700147Y-36914354D01*
X75601544Y-36766784D01*
X75533624Y-36602812D01*
X75499000Y-36428741D01*
X75499000Y-36251259D01*
X75533624Y-36077188D01*
X75601544Y-35913216D01*
X75700147Y-35765646D01*
X75825646Y-35640147D01*
X75973216Y-35541544D01*
X76137188Y-35473624D01*
X76286488Y-35443927D01*
X76311258Y-35439000D01*
X76488742Y-35439000D01*
X76513512Y-35443927D01*
G37*
G36*
X73973512Y-32903927D02*
G01*
X74122812Y-32933624D01*
X74286784Y-33001544D01*
X74434354Y-33100147D01*
X74559853Y-33225646D01*
X74658456Y-33373216D01*
X74726376Y-33537188D01*
X74761000Y-33711259D01*
X74761000Y-33888741D01*
X74726376Y-34062812D01*
X74658456Y-34226784D01*
X74559853Y-34374354D01*
X74434354Y-34499853D01*
X74286784Y-34598456D01*
X74122812Y-34666376D01*
X73973512Y-34696073D01*
X73948742Y-34701000D01*
X73771258Y-34701000D01*
X73746488Y-34696073D01*
X73597188Y-34666376D01*
X73433216Y-34598456D01*
X73285646Y-34499853D01*
X73160147Y-34374354D01*
X73061544Y-34226784D01*
X72993624Y-34062812D01*
X72959000Y-33888741D01*
X72959000Y-33711259D01*
X72993624Y-33537188D01*
X73061544Y-33373216D01*
X73160147Y-33225646D01*
X73285646Y-33100147D01*
X73433216Y-33001544D01*
X73597188Y-32933624D01*
X73746488Y-32903927D01*
X73771258Y-32899000D01*
X73948742Y-32899000D01*
X73973512Y-32903927D01*
G37*
G36*
X77301000Y-34701000D02*
G01*
X75499000Y-34701000D01*
X75499000Y-32899000D01*
X77301000Y-32899000D01*
X77301000Y-34701000D01*
G37*
G36*
X127113512Y-30943927D02*
G01*
X127262812Y-30973624D01*
X127426784Y-31041544D01*
X127574354Y-31140147D01*
X127699853Y-31265646D01*
X127798456Y-31413216D01*
X127866376Y-31577188D01*
X127901000Y-31751259D01*
X127901000Y-31928741D01*
X127866376Y-32102812D01*
X127798456Y-32266784D01*
X127699853Y-32414354D01*
X127574354Y-32539853D01*
X127426784Y-32638456D01*
X127262812Y-32706376D01*
X127113512Y-32736073D01*
X127088742Y-32741000D01*
X126911258Y-32741000D01*
X126886488Y-32736073D01*
X126737188Y-32706376D01*
X126573216Y-32638456D01*
X126425646Y-32539853D01*
X126300147Y-32414354D01*
X126201544Y-32266784D01*
X126133624Y-32102812D01*
X126099000Y-31928741D01*
X126099000Y-31751259D01*
X126133624Y-31577188D01*
X126201544Y-31413216D01*
X126300147Y-31265646D01*
X126425646Y-31140147D01*
X126573216Y-31041544D01*
X126737188Y-30973624D01*
X126886488Y-30943927D01*
X126911258Y-30939000D01*
X127088742Y-30939000D01*
X127113512Y-30943927D01*
G37*
G36*
X124573512Y-30943927D02*
G01*
X124722812Y-30973624D01*
X124886784Y-31041544D01*
X125034354Y-31140147D01*
X125159853Y-31265646D01*
X125258456Y-31413216D01*
X125326376Y-31577188D01*
X125361000Y-31751259D01*
X125361000Y-31928741D01*
X125326376Y-32102812D01*
X125258456Y-32266784D01*
X125159853Y-32414354D01*
X125034354Y-32539853D01*
X124886784Y-32638456D01*
X124722812Y-32706376D01*
X124573512Y-32736073D01*
X124548742Y-32741000D01*
X124371258Y-32741000D01*
X124346488Y-32736073D01*
X124197188Y-32706376D01*
X124033216Y-32638456D01*
X123885646Y-32539853D01*
X123760147Y-32414354D01*
X123661544Y-32266784D01*
X123593624Y-32102812D01*
X123559000Y-31928741D01*
X123559000Y-31751259D01*
X123593624Y-31577188D01*
X123661544Y-31413216D01*
X123760147Y-31265646D01*
X123885646Y-31140147D01*
X124033216Y-31041544D01*
X124197188Y-30973624D01*
X124346488Y-30943927D01*
X124371258Y-30939000D01*
X124548742Y-30939000D01*
X124573512Y-30943927D01*
G37*
G36*
X122033512Y-30943927D02*
G01*
X122182812Y-30973624D01*
X122346784Y-31041544D01*
X122494354Y-31140147D01*
X122619853Y-31265646D01*
X122718456Y-31413216D01*
X122786376Y-31577188D01*
X122821000Y-31751259D01*
X122821000Y-31928741D01*
X122786376Y-32102812D01*
X122718456Y-32266784D01*
X122619853Y-32414354D01*
X122494354Y-32539853D01*
X122346784Y-32638456D01*
X122182812Y-32706376D01*
X122033512Y-32736073D01*
X122008742Y-32741000D01*
X121831258Y-32741000D01*
X121806488Y-32736073D01*
X121657188Y-32706376D01*
X121493216Y-32638456D01*
X121345646Y-32539853D01*
X121220147Y-32414354D01*
X121121544Y-32266784D01*
X121053624Y-32102812D01*
X121019000Y-31928741D01*
X121019000Y-31751259D01*
X121053624Y-31577188D01*
X121121544Y-31413216D01*
X121220147Y-31265646D01*
X121345646Y-31140147D01*
X121493216Y-31041544D01*
X121657188Y-30973624D01*
X121806488Y-30943927D01*
X121831258Y-30939000D01*
X122008742Y-30939000D01*
X122033512Y-30943927D01*
G37*
G36*
X119493512Y-30943927D02*
G01*
X119642812Y-30973624D01*
X119806784Y-31041544D01*
X119954354Y-31140147D01*
X120079853Y-31265646D01*
X120178456Y-31413216D01*
X120246376Y-31577188D01*
X120281000Y-31751259D01*
X120281000Y-31928741D01*
X120246376Y-32102812D01*
X120178456Y-32266784D01*
X120079853Y-32414354D01*
X119954354Y-32539853D01*
X119806784Y-32638456D01*
X119642812Y-32706376D01*
X119493512Y-32736073D01*
X119468742Y-32741000D01*
X119291258Y-32741000D01*
X119266488Y-32736073D01*
X119117188Y-32706376D01*
X118953216Y-32638456D01*
X118805646Y-32539853D01*
X118680147Y-32414354D01*
X118581544Y-32266784D01*
X118513624Y-32102812D01*
X118479000Y-31928741D01*
X118479000Y-31751259D01*
X118513624Y-31577188D01*
X118581544Y-31413216D01*
X118680147Y-31265646D01*
X118805646Y-31140147D01*
X118953216Y-31041544D01*
X119117188Y-30973624D01*
X119266488Y-30943927D01*
X119291258Y-30939000D01*
X119468742Y-30939000D01*
X119493512Y-30943927D01*
G37*
G36*
X116953512Y-30943927D02*
G01*
X117102812Y-30973624D01*
X117266784Y-31041544D01*
X117414354Y-31140147D01*
X117539853Y-31265646D01*
X117638456Y-31413216D01*
X117706376Y-31577188D01*
X117741000Y-31751259D01*
X117741000Y-31928741D01*
X117706376Y-32102812D01*
X117638456Y-32266784D01*
X117539853Y-32414354D01*
X117414354Y-32539853D01*
X117266784Y-32638456D01*
X117102812Y-32706376D01*
X116953512Y-32736073D01*
X116928742Y-32741000D01*
X116751258Y-32741000D01*
X116726488Y-32736073D01*
X116577188Y-32706376D01*
X116413216Y-32638456D01*
X116265646Y-32539853D01*
X116140147Y-32414354D01*
X116041544Y-32266784D01*
X115973624Y-32102812D01*
X115939000Y-31928741D01*
X115939000Y-31751259D01*
X115973624Y-31577188D01*
X116041544Y-31413216D01*
X116140147Y-31265646D01*
X116265646Y-31140147D01*
X116413216Y-31041544D01*
X116577188Y-30973624D01*
X116726488Y-30943927D01*
X116751258Y-30939000D01*
X116928742Y-30939000D01*
X116953512Y-30943927D01*
G37*
G36*
X114413512Y-30943927D02*
G01*
X114562812Y-30973624D01*
X114726784Y-31041544D01*
X114874354Y-31140147D01*
X114999853Y-31265646D01*
X115098456Y-31413216D01*
X115166376Y-31577188D01*
X115201000Y-31751259D01*
X115201000Y-31928741D01*
X115166376Y-32102812D01*
X115098456Y-32266784D01*
X114999853Y-32414354D01*
X114874354Y-32539853D01*
X114726784Y-32638456D01*
X114562812Y-32706376D01*
X114413512Y-32736073D01*
X114388742Y-32741000D01*
X114211258Y-32741000D01*
X114186488Y-32736073D01*
X114037188Y-32706376D01*
X113873216Y-32638456D01*
X113725646Y-32539853D01*
X113600147Y-32414354D01*
X113501544Y-32266784D01*
X113433624Y-32102812D01*
X113399000Y-31928741D01*
X113399000Y-31751259D01*
X113433624Y-31577188D01*
X113501544Y-31413216D01*
X113600147Y-31265646D01*
X113725646Y-31140147D01*
X113873216Y-31041544D01*
X114037188Y-30973624D01*
X114186488Y-30943927D01*
X114211258Y-30939000D01*
X114388742Y-30939000D01*
X114413512Y-30943927D01*
G37*
G36*
X111873512Y-30943927D02*
G01*
X112022812Y-30973624D01*
X112186784Y-31041544D01*
X112334354Y-31140147D01*
X112459853Y-31265646D01*
X112558456Y-31413216D01*
X112626376Y-31577188D01*
X112661000Y-31751259D01*
X112661000Y-31928741D01*
X112626376Y-32102812D01*
X112558456Y-32266784D01*
X112459853Y-32414354D01*
X112334354Y-32539853D01*
X112186784Y-32638456D01*
X112022812Y-32706376D01*
X111873512Y-32736073D01*
X111848742Y-32741000D01*
X111671258Y-32741000D01*
X111646488Y-32736073D01*
X111497188Y-32706376D01*
X111333216Y-32638456D01*
X111185646Y-32539853D01*
X111060147Y-32414354D01*
X110961544Y-32266784D01*
X110893624Y-32102812D01*
X110859000Y-31928741D01*
X110859000Y-31751259D01*
X110893624Y-31577188D01*
X110961544Y-31413216D01*
X111060147Y-31265646D01*
X111185646Y-31140147D01*
X111333216Y-31041544D01*
X111497188Y-30973624D01*
X111646488Y-30943927D01*
X111671258Y-30939000D01*
X111848742Y-30939000D01*
X111873512Y-30943927D01*
G37*
G36*
X109333512Y-30943927D02*
G01*
X109482812Y-30973624D01*
X109646784Y-31041544D01*
X109794354Y-31140147D01*
X109919853Y-31265646D01*
X110018456Y-31413216D01*
X110086376Y-31577188D01*
X110121000Y-31751259D01*
X110121000Y-31928741D01*
X110086376Y-32102812D01*
X110018456Y-32266784D01*
X109919853Y-32414354D01*
X109794354Y-32539853D01*
X109646784Y-32638456D01*
X109482812Y-32706376D01*
X109333512Y-32736073D01*
X109308742Y-32741000D01*
X109131258Y-32741000D01*
X109106488Y-32736073D01*
X108957188Y-32706376D01*
X108793216Y-32638456D01*
X108645646Y-32539853D01*
X108520147Y-32414354D01*
X108421544Y-32266784D01*
X108353624Y-32102812D01*
X108319000Y-31928741D01*
X108319000Y-31751259D01*
X108353624Y-31577188D01*
X108421544Y-31413216D01*
X108520147Y-31265646D01*
X108645646Y-31140147D01*
X108793216Y-31041544D01*
X108957188Y-30973624D01*
X109106488Y-30943927D01*
X109131258Y-30939000D01*
X109308742Y-30939000D01*
X109333512Y-30943927D01*
G37*
G36*
X106793512Y-30943927D02*
G01*
X106942812Y-30973624D01*
X107106784Y-31041544D01*
X107254354Y-31140147D01*
X107379853Y-31265646D01*
X107478456Y-31413216D01*
X107546376Y-31577188D01*
X107581000Y-31751259D01*
X107581000Y-31928741D01*
X107546376Y-32102812D01*
X107478456Y-32266784D01*
X107379853Y-32414354D01*
X107254354Y-32539853D01*
X107106784Y-32638456D01*
X106942812Y-32706376D01*
X106793512Y-32736073D01*
X106768742Y-32741000D01*
X106591258Y-32741000D01*
X106566488Y-32736073D01*
X106417188Y-32706376D01*
X106253216Y-32638456D01*
X106105646Y-32539853D01*
X105980147Y-32414354D01*
X105881544Y-32266784D01*
X105813624Y-32102812D01*
X105779000Y-31928741D01*
X105779000Y-31751259D01*
X105813624Y-31577188D01*
X105881544Y-31413216D01*
X105980147Y-31265646D01*
X106105646Y-31140147D01*
X106253216Y-31041544D01*
X106417188Y-30973624D01*
X106566488Y-30943927D01*
X106591258Y-30939000D01*
X106768742Y-30939000D01*
X106793512Y-30943927D01*
G37*
G36*
X104253512Y-30943927D02*
G01*
X104402812Y-30973624D01*
X104566784Y-31041544D01*
X104714354Y-31140147D01*
X104839853Y-31265646D01*
X104938456Y-31413216D01*
X105006376Y-31577188D01*
X105041000Y-31751259D01*
X105041000Y-31928741D01*
X105006376Y-32102812D01*
X104938456Y-32266784D01*
X104839853Y-32414354D01*
X104714354Y-32539853D01*
X104566784Y-32638456D01*
X104402812Y-32706376D01*
X104253512Y-32736073D01*
X104228742Y-32741000D01*
X104051258Y-32741000D01*
X104026488Y-32736073D01*
X103877188Y-32706376D01*
X103713216Y-32638456D01*
X103565646Y-32539853D01*
X103440147Y-32414354D01*
X103341544Y-32266784D01*
X103273624Y-32102812D01*
X103239000Y-31928741D01*
X103239000Y-31751259D01*
X103273624Y-31577188D01*
X103341544Y-31413216D01*
X103440147Y-31265646D01*
X103565646Y-31140147D01*
X103713216Y-31041544D01*
X103877188Y-30973624D01*
X104026488Y-30943927D01*
X104051258Y-30939000D01*
X104228742Y-30939000D01*
X104253512Y-30943927D01*
G37*
G36*
X129653512Y-30943927D02*
G01*
X129802812Y-30973624D01*
X129966784Y-31041544D01*
X130114354Y-31140147D01*
X130239853Y-31265646D01*
X130338456Y-31413216D01*
X130406376Y-31577188D01*
X130441000Y-31751259D01*
X130441000Y-31928741D01*
X130406376Y-32102812D01*
X130338456Y-32266784D01*
X130239853Y-32414354D01*
X130114354Y-32539853D01*
X129966784Y-32638456D01*
X129802812Y-32706376D01*
X129653512Y-32736073D01*
X129628742Y-32741000D01*
X129451258Y-32741000D01*
X129426488Y-32736073D01*
X129277188Y-32706376D01*
X129113216Y-32638456D01*
X128965646Y-32539853D01*
X128840147Y-32414354D01*
X128741544Y-32266784D01*
X128673624Y-32102812D01*
X128639000Y-31928741D01*
X128639000Y-31751259D01*
X128673624Y-31577188D01*
X128741544Y-31413216D01*
X128840147Y-31265646D01*
X128965646Y-31140147D01*
X129113216Y-31041544D01*
X129277188Y-30973624D01*
X129426488Y-30943927D01*
X129451258Y-30939000D01*
X129628742Y-30939000D01*
X129653512Y-30943927D01*
G37*
G36*
X132193512Y-30943927D02*
G01*
X132342812Y-30973624D01*
X132506784Y-31041544D01*
X132654354Y-31140147D01*
X132779853Y-31265646D01*
X132878456Y-31413216D01*
X132946376Y-31577188D01*
X132981000Y-31751259D01*
X132981000Y-31928741D01*
X132946376Y-32102812D01*
X132878456Y-32266784D01*
X132779853Y-32414354D01*
X132654354Y-32539853D01*
X132506784Y-32638456D01*
X132342812Y-32706376D01*
X132193512Y-32736073D01*
X132168742Y-32741000D01*
X131991258Y-32741000D01*
X131966488Y-32736073D01*
X131817188Y-32706376D01*
X131653216Y-32638456D01*
X131505646Y-32539853D01*
X131380147Y-32414354D01*
X131281544Y-32266784D01*
X131213624Y-32102812D01*
X131179000Y-31928741D01*
X131179000Y-31751259D01*
X131213624Y-31577188D01*
X131281544Y-31413216D01*
X131380147Y-31265646D01*
X131505646Y-31140147D01*
X131653216Y-31041544D01*
X131817188Y-30973624D01*
X131966488Y-30943927D01*
X131991258Y-30939000D01*
X132168742Y-30939000D01*
X132193512Y-30943927D01*
G37*
G36*
X101713512Y-30943927D02*
G01*
X101862812Y-30973624D01*
X102026784Y-31041544D01*
X102174354Y-31140147D01*
X102299853Y-31265646D01*
X102398456Y-31413216D01*
X102466376Y-31577188D01*
X102501000Y-31751259D01*
X102501000Y-31928741D01*
X102466376Y-32102812D01*
X102398456Y-32266784D01*
X102299853Y-32414354D01*
X102174354Y-32539853D01*
X102026784Y-32638456D01*
X101862812Y-32706376D01*
X101713512Y-32736073D01*
X101688742Y-32741000D01*
X101511258Y-32741000D01*
X101486488Y-32736073D01*
X101337188Y-32706376D01*
X101173216Y-32638456D01*
X101025646Y-32539853D01*
X100900147Y-32414354D01*
X100801544Y-32266784D01*
X100733624Y-32102812D01*
X100699000Y-31928741D01*
X100699000Y-31751259D01*
X100733624Y-31577188D01*
X100801544Y-31413216D01*
X100900147Y-31265646D01*
X101025646Y-31140147D01*
X101173216Y-31041544D01*
X101337188Y-30973624D01*
X101486488Y-30943927D01*
X101511258Y-30939000D01*
X101688742Y-30939000D01*
X101713512Y-30943927D01*
G37*
G36*
X99173512Y-30943927D02*
G01*
X99322812Y-30973624D01*
X99486784Y-31041544D01*
X99634354Y-31140147D01*
X99759853Y-31265646D01*
X99858456Y-31413216D01*
X99926376Y-31577188D01*
X99961000Y-31751259D01*
X99961000Y-31928741D01*
X99926376Y-32102812D01*
X99858456Y-32266784D01*
X99759853Y-32414354D01*
X99634354Y-32539853D01*
X99486784Y-32638456D01*
X99322812Y-32706376D01*
X99173512Y-32736073D01*
X99148742Y-32741000D01*
X98971258Y-32741000D01*
X98946488Y-32736073D01*
X98797188Y-32706376D01*
X98633216Y-32638456D01*
X98485646Y-32539853D01*
X98360147Y-32414354D01*
X98261544Y-32266784D01*
X98193624Y-32102812D01*
X98159000Y-31928741D01*
X98159000Y-31751259D01*
X98193624Y-31577188D01*
X98261544Y-31413216D01*
X98360147Y-31265646D01*
X98485646Y-31140147D01*
X98633216Y-31041544D01*
X98797188Y-30973624D01*
X98946488Y-30943927D01*
X98971258Y-30939000D01*
X99148742Y-30939000D01*
X99173512Y-30943927D01*
G37*
G36*
X96633512Y-30943927D02*
G01*
X96782812Y-30973624D01*
X96946784Y-31041544D01*
X97094354Y-31140147D01*
X97219853Y-31265646D01*
X97318456Y-31413216D01*
X97386376Y-31577188D01*
X97421000Y-31751259D01*
X97421000Y-31928741D01*
X97386376Y-32102812D01*
X97318456Y-32266784D01*
X97219853Y-32414354D01*
X97094354Y-32539853D01*
X96946784Y-32638456D01*
X96782812Y-32706376D01*
X96633512Y-32736073D01*
X96608742Y-32741000D01*
X96431258Y-32741000D01*
X96406488Y-32736073D01*
X96257188Y-32706376D01*
X96093216Y-32638456D01*
X95945646Y-32539853D01*
X95820147Y-32414354D01*
X95721544Y-32266784D01*
X95653624Y-32102812D01*
X95619000Y-31928741D01*
X95619000Y-31751259D01*
X95653624Y-31577188D01*
X95721544Y-31413216D01*
X95820147Y-31265646D01*
X95945646Y-31140147D01*
X96093216Y-31041544D01*
X96257188Y-30973624D01*
X96406488Y-30943927D01*
X96431258Y-30939000D01*
X96608742Y-30939000D01*
X96633512Y-30943927D01*
G37*
G36*
X134733512Y-30943927D02*
G01*
X134882812Y-30973624D01*
X135046784Y-31041544D01*
X135194354Y-31140147D01*
X135319853Y-31265646D01*
X135418456Y-31413216D01*
X135486376Y-31577188D01*
X135521000Y-31751259D01*
X135521000Y-31928741D01*
X135486376Y-32102812D01*
X135418456Y-32266784D01*
X135319853Y-32414354D01*
X135194354Y-32539853D01*
X135046784Y-32638456D01*
X134882812Y-32706376D01*
X134733512Y-32736073D01*
X134708742Y-32741000D01*
X134531258Y-32741000D01*
X134506488Y-32736073D01*
X134357188Y-32706376D01*
X134193216Y-32638456D01*
X134045646Y-32539853D01*
X133920147Y-32414354D01*
X133821544Y-32266784D01*
X133753624Y-32102812D01*
X133719000Y-31928741D01*
X133719000Y-31751259D01*
X133753624Y-31577188D01*
X133821544Y-31413216D01*
X133920147Y-31265646D01*
X134045646Y-31140147D01*
X134193216Y-31041544D01*
X134357188Y-30973624D01*
X134506488Y-30943927D01*
X134531258Y-30939000D01*
X134708742Y-30939000D01*
X134733512Y-30943927D01*
G37*
G36*
X91553512Y-30943927D02*
G01*
X91702812Y-30973624D01*
X91866784Y-31041544D01*
X92014354Y-31140147D01*
X92139853Y-31265646D01*
X92238456Y-31413216D01*
X92306376Y-31577188D01*
X92341000Y-31751259D01*
X92341000Y-31928741D01*
X92306376Y-32102812D01*
X92238456Y-32266784D01*
X92139853Y-32414354D01*
X92014354Y-32539853D01*
X91866784Y-32638456D01*
X91702812Y-32706376D01*
X91553512Y-32736073D01*
X91528742Y-32741000D01*
X91351258Y-32741000D01*
X91326488Y-32736073D01*
X91177188Y-32706376D01*
X91013216Y-32638456D01*
X90865646Y-32539853D01*
X90740147Y-32414354D01*
X90641544Y-32266784D01*
X90573624Y-32102812D01*
X90539000Y-31928741D01*
X90539000Y-31751259D01*
X90573624Y-31577188D01*
X90641544Y-31413216D01*
X90740147Y-31265646D01*
X90865646Y-31140147D01*
X91013216Y-31041544D01*
X91177188Y-30973624D01*
X91326488Y-30943927D01*
X91351258Y-30939000D01*
X91528742Y-30939000D01*
X91553512Y-30943927D01*
G37*
G36*
X89013512Y-30943927D02*
G01*
X89162812Y-30973624D01*
X89326784Y-31041544D01*
X89474354Y-31140147D01*
X89599853Y-31265646D01*
X89698456Y-31413216D01*
X89766376Y-31577188D01*
X89801000Y-31751259D01*
X89801000Y-31928741D01*
X89766376Y-32102812D01*
X89698456Y-32266784D01*
X89599853Y-32414354D01*
X89474354Y-32539853D01*
X89326784Y-32638456D01*
X89162812Y-32706376D01*
X89013512Y-32736073D01*
X88988742Y-32741000D01*
X88811258Y-32741000D01*
X88786488Y-32736073D01*
X88637188Y-32706376D01*
X88473216Y-32638456D01*
X88325646Y-32539853D01*
X88200147Y-32414354D01*
X88101544Y-32266784D01*
X88033624Y-32102812D01*
X87999000Y-31928741D01*
X87999000Y-31751259D01*
X88033624Y-31577188D01*
X88101544Y-31413216D01*
X88200147Y-31265646D01*
X88325646Y-31140147D01*
X88473216Y-31041544D01*
X88637188Y-30973624D01*
X88786488Y-30943927D01*
X88811258Y-30939000D01*
X88988742Y-30939000D01*
X89013512Y-30943927D01*
G37*
G36*
X86473512Y-30943927D02*
G01*
X86622812Y-30973624D01*
X86786784Y-31041544D01*
X86934354Y-31140147D01*
X87059853Y-31265646D01*
X87158456Y-31413216D01*
X87226376Y-31577188D01*
X87261000Y-31751259D01*
X87261000Y-31928741D01*
X87226376Y-32102812D01*
X87158456Y-32266784D01*
X87059853Y-32414354D01*
X86934354Y-32539853D01*
X86786784Y-32638456D01*
X86622812Y-32706376D01*
X86473512Y-32736073D01*
X86448742Y-32741000D01*
X86271258Y-32741000D01*
X86246488Y-32736073D01*
X86097188Y-32706376D01*
X85933216Y-32638456D01*
X85785646Y-32539853D01*
X85660147Y-32414354D01*
X85561544Y-32266784D01*
X85493624Y-32102812D01*
X85459000Y-31928741D01*
X85459000Y-31751259D01*
X85493624Y-31577188D01*
X85561544Y-31413216D01*
X85660147Y-31265646D01*
X85785646Y-31140147D01*
X85933216Y-31041544D01*
X86097188Y-30973624D01*
X86246488Y-30943927D01*
X86271258Y-30939000D01*
X86448742Y-30939000D01*
X86473512Y-30943927D01*
G37*
G36*
X94093512Y-30943927D02*
G01*
X94242812Y-30973624D01*
X94406784Y-31041544D01*
X94554354Y-31140147D01*
X94679853Y-31265646D01*
X94778456Y-31413216D01*
X94846376Y-31577188D01*
X94881000Y-31751259D01*
X94881000Y-31928741D01*
X94846376Y-32102812D01*
X94778456Y-32266784D01*
X94679853Y-32414354D01*
X94554354Y-32539853D01*
X94406784Y-32638456D01*
X94242812Y-32706376D01*
X94093512Y-32736073D01*
X94068742Y-32741000D01*
X93891258Y-32741000D01*
X93866488Y-32736073D01*
X93717188Y-32706376D01*
X93553216Y-32638456D01*
X93405646Y-32539853D01*
X93280147Y-32414354D01*
X93181544Y-32266784D01*
X93113624Y-32102812D01*
X93079000Y-31928741D01*
X93079000Y-31751259D01*
X93113624Y-31577188D01*
X93181544Y-31413216D01*
X93280147Y-31265646D01*
X93405646Y-31140147D01*
X93553216Y-31041544D01*
X93717188Y-30973624D01*
X93866488Y-30943927D01*
X93891258Y-30939000D01*
X94068742Y-30939000D01*
X94093512Y-30943927D01*
G37*
G36*
X165460547Y-30262326D02*
G01*
X165634156Y-30314990D01*
X165634158Y-30314991D01*
X165794155Y-30400511D01*
X165934397Y-30515603D01*
X166013729Y-30612271D01*
X166049489Y-30655844D01*
X166135010Y-30815843D01*
X166187674Y-30989452D01*
X166201000Y-31124756D01*
X166201000Y-31675243D01*
X166187674Y-31810548D01*
X166135010Y-31984157D01*
X166049489Y-32144156D01*
X166013729Y-32187729D01*
X165934397Y-32284397D01*
X165837729Y-32363729D01*
X165794156Y-32399489D01*
X165634157Y-32485010D01*
X165460548Y-32537674D01*
X165280000Y-32555456D01*
X165099453Y-32537674D01*
X164925844Y-32485010D01*
X164765845Y-32399489D01*
X164722272Y-32363729D01*
X164625604Y-32284397D01*
X164510513Y-32144157D01*
X164510512Y-32144155D01*
X164424990Y-31984157D01*
X164372326Y-31810548D01*
X164359000Y-31675244D01*
X164359000Y-31124757D01*
X164372326Y-30989453D01*
X164424990Y-30815844D01*
X164510511Y-30655845D01*
X164510512Y-30655844D01*
X164625603Y-30515603D01*
X164751388Y-30412375D01*
X164765844Y-30400511D01*
X164907544Y-30324771D01*
X164925841Y-30314991D01*
X164925843Y-30314990D01*
X165099452Y-30262326D01*
X165280000Y-30244544D01*
X165460547Y-30262326D01*
G37*
G36*
X162920547Y-30262326D02*
G01*
X163094156Y-30314990D01*
X163094158Y-30314991D01*
X163254155Y-30400511D01*
X163394397Y-30515603D01*
X163473729Y-30612271D01*
X163509489Y-30655844D01*
X163595010Y-30815843D01*
X163647674Y-30989452D01*
X163661000Y-31124756D01*
X163661000Y-31675243D01*
X163647674Y-31810548D01*
X163595010Y-31984157D01*
X163509489Y-32144156D01*
X163473729Y-32187729D01*
X163394397Y-32284397D01*
X163297729Y-32363729D01*
X163254156Y-32399489D01*
X163094157Y-32485010D01*
X162920548Y-32537674D01*
X162740000Y-32555456D01*
X162559453Y-32537674D01*
X162385844Y-32485010D01*
X162225845Y-32399489D01*
X162182272Y-32363729D01*
X162085604Y-32284397D01*
X161970513Y-32144157D01*
X161970512Y-32144155D01*
X161884990Y-31984157D01*
X161832326Y-31810548D01*
X161819000Y-31675244D01*
X161819000Y-31124757D01*
X161832326Y-30989453D01*
X161884990Y-30815844D01*
X161970511Y-30655845D01*
X161970512Y-30655844D01*
X162085603Y-30515603D01*
X162211388Y-30412375D01*
X162225844Y-30400511D01*
X162367544Y-30324771D01*
X162385841Y-30314991D01*
X162385843Y-30314990D01*
X162559452Y-30262326D01*
X162740000Y-30244544D01*
X162920547Y-30262326D01*
G37*
G36*
X148780547Y-30262326D02*
G01*
X148954156Y-30314990D01*
X148954158Y-30314991D01*
X149114155Y-30400511D01*
X149254397Y-30515603D01*
X149333729Y-30612271D01*
X149369489Y-30655844D01*
X149455010Y-30815843D01*
X149507674Y-30989452D01*
X149521000Y-31124756D01*
X149521000Y-31675243D01*
X149507674Y-31810548D01*
X149455010Y-31984157D01*
X149369489Y-32144156D01*
X149333729Y-32187729D01*
X149254397Y-32284397D01*
X149157729Y-32363729D01*
X149114156Y-32399489D01*
X148954157Y-32485010D01*
X148780548Y-32537674D01*
X148600000Y-32555456D01*
X148419453Y-32537674D01*
X148245844Y-32485010D01*
X148085845Y-32399489D01*
X148042272Y-32363729D01*
X147945604Y-32284397D01*
X147830513Y-32144157D01*
X147830512Y-32144155D01*
X147744990Y-31984157D01*
X147692326Y-31810548D01*
X147679000Y-31675244D01*
X147679000Y-31124757D01*
X147692326Y-30989453D01*
X147744990Y-30815844D01*
X147830511Y-30655845D01*
X147830512Y-30655844D01*
X147945603Y-30515603D01*
X148071388Y-30412375D01*
X148085844Y-30400511D01*
X148227544Y-30324771D01*
X148245841Y-30314991D01*
X148245843Y-30314990D01*
X148419452Y-30262326D01*
X148600000Y-30244544D01*
X148780547Y-30262326D01*
G37*
G36*
X146240547Y-30262326D02*
G01*
X146414156Y-30314990D01*
X146414158Y-30314991D01*
X146574155Y-30400511D01*
X146714397Y-30515603D01*
X146793729Y-30612271D01*
X146829489Y-30655844D01*
X146915010Y-30815843D01*
X146967674Y-30989452D01*
X146981000Y-31124756D01*
X146981000Y-31675243D01*
X146967674Y-31810548D01*
X146915010Y-31984157D01*
X146829489Y-32144156D01*
X146793729Y-32187729D01*
X146714397Y-32284397D01*
X146617729Y-32363729D01*
X146574156Y-32399489D01*
X146414157Y-32485010D01*
X146240548Y-32537674D01*
X146060000Y-32555456D01*
X145879453Y-32537674D01*
X145705844Y-32485010D01*
X145545845Y-32399489D01*
X145502272Y-32363729D01*
X145405604Y-32284397D01*
X145290513Y-32144157D01*
X145290512Y-32144155D01*
X145204990Y-31984157D01*
X145152326Y-31810548D01*
X145139000Y-31675244D01*
X145139000Y-31124757D01*
X145152326Y-30989453D01*
X145204990Y-30815844D01*
X145290511Y-30655845D01*
X145290512Y-30655844D01*
X145405603Y-30515603D01*
X145531388Y-30412375D01*
X145545844Y-30400511D01*
X145687544Y-30324771D01*
X145705841Y-30314991D01*
X145705843Y-30314990D01*
X145879452Y-30262326D01*
X146060000Y-30244544D01*
X146240547Y-30262326D01*
G37*
G36*
X144299561Y-30252966D02*
G01*
X144332383Y-30262923D01*
X144362632Y-30279092D01*
X144389148Y-30300852D01*
X144410908Y-30327368D01*
X144427077Y-30357617D01*
X144437034Y-30390439D01*
X144441000Y-30430713D01*
X144441000Y-32369287D01*
X144437034Y-32409561D01*
X144427077Y-32442383D01*
X144410908Y-32472632D01*
X144389148Y-32499148D01*
X144362632Y-32520908D01*
X144332383Y-32537077D01*
X144299561Y-32547034D01*
X144259287Y-32551000D01*
X142780713Y-32551000D01*
X142740439Y-32547034D01*
X142707617Y-32537077D01*
X142677368Y-32520908D01*
X142650852Y-32499148D01*
X142629092Y-32472632D01*
X142612923Y-32442383D01*
X142602966Y-32409561D01*
X142599000Y-32369287D01*
X142599000Y-30430713D01*
X142602966Y-30390439D01*
X142612923Y-30357617D01*
X142629092Y-30327368D01*
X142650852Y-30300852D01*
X142677368Y-30279092D01*
X142707617Y-30262923D01*
X142740439Y-30252966D01*
X142780713Y-30249000D01*
X144259287Y-30249000D01*
X144299561Y-30252966D01*
G37*
G36*
X160979561Y-30252966D02*
G01*
X161012383Y-30262923D01*
X161042632Y-30279092D01*
X161069148Y-30300852D01*
X161090908Y-30327368D01*
X161107077Y-30357617D01*
X161117034Y-30390439D01*
X161121000Y-30430713D01*
X161121000Y-32369287D01*
X161117034Y-32409561D01*
X161107077Y-32442383D01*
X161090908Y-32472632D01*
X161069148Y-32499148D01*
X161042632Y-32520908D01*
X161012383Y-32537077D01*
X160979561Y-32547034D01*
X160939287Y-32551000D01*
X159460713Y-32551000D01*
X159420439Y-32547034D01*
X159387617Y-32537077D01*
X159357368Y-32520908D01*
X159330852Y-32499148D01*
X159309092Y-32472632D01*
X159292923Y-32442383D01*
X159282966Y-32409561D01*
X159279000Y-32369287D01*
X159279000Y-30430713D01*
X159282966Y-30390439D01*
X159292923Y-30357617D01*
X159309092Y-30327368D01*
X159330852Y-30300852D01*
X159357368Y-30279092D01*
X159387617Y-30262923D01*
X159420439Y-30252966D01*
X159460713Y-30249000D01*
X160939287Y-30249000D01*
X160979561Y-30252966D01*
G37*
G36*
X71979549Y-28081116D02*
G01*
X72090734Y-28103232D01*
X72300203Y-28189997D01*
X72488720Y-28315960D01*
X72649040Y-28476280D01*
X72775003Y-28664797D01*
X72861768Y-28874266D01*
X72906000Y-29096636D01*
X72906000Y-29323364D01*
X72861768Y-29545734D01*
X72775003Y-29755203D01*
X72649040Y-29943720D01*
X72488720Y-30104040D01*
X72300203Y-30230003D01*
X72300202Y-30230004D01*
X72300201Y-30230004D01*
X72242064Y-30254085D01*
X72090734Y-30316768D01*
X72041732Y-30326515D01*
X71868365Y-30361000D01*
X71641635Y-30361000D01*
X71468268Y-30326515D01*
X71419266Y-30316768D01*
X71267936Y-30254085D01*
X71209799Y-30230004D01*
X71209798Y-30230004D01*
X71209797Y-30230003D01*
X71021280Y-30104040D01*
X70860960Y-29943720D01*
X70734997Y-29755203D01*
X70648232Y-29545734D01*
X70604000Y-29323364D01*
X70604000Y-29096636D01*
X70648232Y-28874266D01*
X70734997Y-28664797D01*
X70860960Y-28476280D01*
X71021280Y-28315960D01*
X71209797Y-28189997D01*
X71419266Y-28103232D01*
X71530451Y-28081116D01*
X71641635Y-28059000D01*
X71868365Y-28059000D01*
X71979549Y-28081116D01*
G37*
G36*
X172309549Y-28081116D02*
G01*
X172420734Y-28103232D01*
X172630203Y-28189997D01*
X172818720Y-28315960D01*
X172979040Y-28476280D01*
X173105003Y-28664797D01*
X173191768Y-28874266D01*
X173236000Y-29096636D01*
X173236000Y-29323364D01*
X173191768Y-29545734D01*
X173105003Y-29755203D01*
X172979040Y-29943720D01*
X172818720Y-30104040D01*
X172630203Y-30230003D01*
X172630202Y-30230004D01*
X172630201Y-30230004D01*
X172572064Y-30254085D01*
X172420734Y-30316768D01*
X172371732Y-30326515D01*
X172198365Y-30361000D01*
X171971635Y-30361000D01*
X171798268Y-30326515D01*
X171749266Y-30316768D01*
X171597936Y-30254085D01*
X171539799Y-30230004D01*
X171539798Y-30230004D01*
X171539797Y-30230003D01*
X171351280Y-30104040D01*
X171190960Y-29943720D01*
X171064997Y-29755203D01*
X170978232Y-29545734D01*
X170934000Y-29323364D01*
X170934000Y-29096636D01*
X170978232Y-28874266D01*
X171064997Y-28664797D01*
X171190960Y-28476280D01*
X171351280Y-28315960D01*
X171539797Y-28189997D01*
X171749266Y-28103232D01*
X171860451Y-28081116D01*
X171971635Y-28059000D01*
X172198365Y-28059000D01*
X172309549Y-28081116D01*
G37*
M02*
