M48
; DRILL file {KiCad 5.1.4+dfsg1-1} date Tue 17 Mar 2020 19:11:07 GMT
; FORMAT={-:-/ absolute / inch / decimal}
; #@! TF.CreationDate,2020-03-17T19:11:07+00:00
; #@! TF.GenerationSoftware,Kicad,Pcbnew,5.1.4+dfsg1-1
; #@! TF.FileFunction,Plated,1,2,PTH
FMAT,2
INCH
T1C0.0157
T2C0.0394
T3C0.0472
%
G90
G05
T1
X3.16Y-1.9
X3.35Y-1.98
X3.5302Y-2.7152
X3.6299Y-2.6969
X3.6508Y-2.4803
X3.66Y-1.81
X3.66Y-2.28
X3.6881Y-2.418
X3.89Y-2.12
X3.92Y-2.38
X4.03Y-1.99
X4.04Y-1.83
X4.06Y-2.69
X4.27Y-2.27
X4.3Y-1.98
X4.37Y-2.33
X4.3769Y-1.9848
X4.5748Y-2.315
X4.62Y-2.69
X4.63Y-2.36
X4.8425Y-2.3543
X4.92Y-2.69
X5.22Y-2.69
X5.28Y-2.38
X6.38Y-2.21
T2
X3.4Y-1.2535
X3.4Y-2.9465
X3.5Y-1.2535
X3.5Y-2.9465
X3.6Y-1.2535
X3.6Y-2.9465
X3.7Y-1.2535
X3.8Y-1.2535
X3.9Y-1.2535
X4.0Y-1.2535
X4.1Y-1.2535
X4.2Y-1.2535
X4.3Y-1.2535
X4.4Y-1.2535
X4.5Y-1.2535
X4.6Y-1.2535
X4.7Y-1.2535
X4.8Y-1.2535
X4.9Y-1.2535
X5.0Y-1.2535
X5.1Y-1.2535
X5.1Y-2.9465
X5.2Y-1.2535
X5.2Y-2.9465
X5.3Y-1.2535
X5.3Y-2.9465
X2.9079Y-1.3307
X2.9079Y-1.4307
X2.9079Y-1.5307
X2.9079Y-1.6307
X2.9079Y-1.7307
X2.9079Y-1.8307
X2.9079Y-1.9307
X2.9079Y-2.0307
X2.9079Y-2.1307
X2.9079Y-2.2307
X2.9079Y-2.3307
X2.9079Y-2.4307
X2.9079Y-2.5307
X2.9079Y-2.6307
X2.9079Y-2.7307
X2.9079Y-2.8307
X2.9079Y-2.9307
X2.9079Y-3.0307
X2.9079Y-3.1307
X2.9079Y-3.2307
X3.0079Y-1.3307
X3.0079Y-1.4307
X3.0079Y-1.5307
X3.0079Y-1.6307
X3.0079Y-1.7307
X3.0079Y-1.8307
X3.0079Y-1.9307
X3.0079Y-2.0307
X3.0079Y-2.1307
X3.0079Y-2.2307
X3.0079Y-2.3307
X3.0079Y-2.4307
X3.0079Y-2.5307
X3.0079Y-2.6307
X3.0079Y-2.7307
X3.0079Y-2.8307
X3.0079Y-2.9307
X3.0079Y-3.0307
X3.0079Y-3.1307
X3.0079Y-3.2307
T3
X4.45Y-3.2028
X4.55Y-3.2028
X4.65Y-3.2028
X5.5874Y-3.2047
X5.6874Y-3.2047
X5.7874Y-3.2047
X5.6504Y-1.2362
X5.7504Y-1.2362
X5.8504Y-1.2362
X6.685Y-2.9181
X6.685Y-3.0181
X6.685Y-3.1181
X6.3071Y-1.2362
X6.4071Y-1.2362
X6.5071Y-1.2362
X4.85Y-3.2028
X4.95Y-3.2028
X5.05Y-3.2028
X4.05Y-3.2028
X4.15Y-3.2028
X4.25Y-3.2028
X6.3331Y-3.2047
X6.4331Y-3.2047
X3.65Y-3.2028
X3.75Y-3.2028
X3.85Y-3.2028
T0
M30
